<svg class="main-svg" xmlns="http://www.w3.org/2000/svg" xmlns:xlink="http://www.w3.org/1999/xlink" width="700" height="450" style="" viewBox="0 0 700 450"><rect x="0" y="0" width="700" height="450" style="fill: rgb(255, 255, 255); fill-opacity: 1;"/><defs id="defs-594737"><g class="clips"><clipPath id="clip594737xyplot" class="plotclip"><rect width="580" height="330"/></clipPath><clipPath class="axesclip" id="clip594737x"><rect x="60" y="0" width="580" height="450"/></clipPath><clipPath class="axesclip" id="clip594737y"><rect x="0" y="60" width="700" height="330"/></clipPath><clipPath class="axesclip" id="clip594737xy"><rect x="60" y="60" width="580" height="330"/></clipPath></g><g class="gradients"/></defs><g class="bglayer"/><g class="layer-below"><g class="imagelayer"/><g class="shapelayer"/></g><g class="cartesianlayer"><g class="subplot xy"><g class="layer-subplot"><g class="shapelayer"/><g class="imagelayer"/></g><g class="gridlayer"><g class="x"><path class="xgrid crisp" d="M0,60v330" transform="translate(205.97,0)" style="stroke: rgb(238, 238, 238); stroke-opacity: 1; stroke-width: 1px;"/><path class="xgrid crisp" d="M0,60v330" transform="translate(351.94,0)" style="stroke: rgb(238, 238, 238); stroke-opacity: 1; stroke-width: 1px;"/><path class="xgrid crisp" d="M0,60v330" transform="translate(497.91,0)" style="stroke: rgb(238, 238, 238); stroke-opacity: 1; stroke-width: 1px;"/></g><g class="y"><path class="ygrid crisp" d="M60,0h580" transform="translate(0,324.01)" style="stroke: rgb(238, 238, 238); stroke-opacity: 1; stroke-width: 1px;"/><path class="ygrid crisp" d="M60,0h580" transform="translate(0,274.52)" style="stroke: rgb(238, 238, 238); stroke-opacity: 1; stroke-width: 1px;"/><path class="ygrid crisp" d="M60,0h580" transform="translate(0,225.03)" style="stroke: rgb(238, 238, 238); stroke-opacity: 1; stroke-width: 1px;"/><path class="ygrid crisp" d="M60,0h580" transform="translate(0,175.54000000000002)" style="stroke: rgb(238, 238, 238); stroke-opacity: 1; stroke-width: 1px;"/><path class="ygrid crisp" d="M60,0h580" transform="translate(0,126.05)" style="stroke: rgb(238, 238, 238); stroke-opacity: 1; stroke-width: 1px;"/><path class="ygrid crisp" d="M60,0h580" transform="translate(0,76.56)" style="stroke: rgb(238, 238, 238); stroke-opacity: 1; stroke-width: 1px;"/></g></g><g class="zerolinelayer"><path class="xzl zl crisp" d="M0,60v330" transform="translate(60,0)" style="stroke: rgb(68, 68, 68); stroke-opacity: 1; stroke-width: 1px;"/><path class="yzl zl crisp" d="M60,0h580" transform="translate(0,373.5)" style="stroke: rgb(68, 68, 68); stroke-opacity: 1; stroke-width: 1px;"/></g><path class="xlines-below"/><path class="ylines-below"/><g class="overlines-below"/><g class="xaxislayer-below"/><g class="yaxislayer-below"/><g class="overaxes-below"/><g class="plot" transform="translate(60, 60)" clip-path="url(#clip594737xyplot)"><g class="scatterlayer mlayer"><g class="trace scatter trace55bb08" style="stroke-miterlimit: 2; opacity: 1;"><g class="fills"/><g class="errorbars"/><g class="lines"><path class="js-line" d="M0,313.5L0.03,42.54L0.61,79.5L1.2,55.9L1.78,101.48L2.36,74.2L2.95,48.81L3.53,55.82L4.12,74.58L4.7,64.09L5.28,116.02L5.87,91.71L6.45,103.74L7.04,50.65L7.62,88.36L8.2,92.56L8.79,110.89L9.37,129.12L9.96,90.1L10.54,127.71L11.12,67.06L11.71,77.03L12.29,111.92L12.87,92.23L13.46,132.86L14.04,108.6L14.63,115.55L15.21,62.65L15.79,136.84L16.38,16.5L16.96,140.23L17.55,176.02L18.13,140.08L18.71,135.61L19.3,118.6L20.47,137.13L21.05,95.96L21.63,120.79L22.22,86.57L22.8,153.18L23.38,111.35L23.97,89.84L24.55,131.98L25.14,122.44L25.72,146.61L26.3,158.26L26.89,133.88L27.47,123.3L28.06,124.03L28.64,159.94L29.63,130.12L30.22,127.83L30.8,118.03L31.38,133.81L31.97,72.58L32.55,105.49L33.14,117.29L33.72,157.37L34.3,163.75L34.89,126.88L35.47,110.76L36.05,156.74L36.64,106.79L37.22,116.58L37.81,144.53L38.39,108.39L38.97,134.15L39.56,97.33L40.14,168.64L40.73,137.8L41.31,192.84L41.89,122.09L42.48,136.37L43.06,135.28L43.65,140.79L44.23,133.25L44.81,124.95L45.4,126.09L45.98,98.93L46.56,132.81L47.15,119.82L47.73,150.5L48.32,131.01L48.9,107.36L49.48,122.43L50.65,95.75L51.24,118.57L51.82,162.8L52.4,102.23L52.99,113.25L53.57,158.42L54.16,175.89L54.74,125.6L55.91,138.18L56.49,113.84L57.07,111.93L57.66,144.87L58.07,147.06L58.65,112.42L59.82,167.56L60.4,130.02L61.57,146.5L62.15,144.52L62.74,144.8L63.32,142.34L64.49,117.18L65.07,148.78L65.66,137.65L66.24,156.72L67.41,113.16L67.99,120.23L68.58,150.09L69.16,142.91L69.74,129.33L70.33,125.28L70.91,130.23L71.5,167.99L72.08,131.41L72.66,133.28L73.25,146.11L74.42,105.71L75,182.73L76.17,158.72L76.75,108.52L77.34,100.85L77.92,134.33L78.5,178.31L79.09,71.62L80.84,179.18L81.42,174.91L82.01,118.8L82.59,135.09L83.17,133.41L83.76,165.63L84.34,189.52L84.93,187.21L85.51,149.25L86.09,148.87L86.68,141.51L87.09,182.4L87.67,129.77L88.84,206.4L89.42,148.98L90.01,186.23L90.59,135.55L91.76,154.02L92.34,115.91L92.92,149.38L93.51,144.58L94.09,115.75L95.26,171.27L95.84,138.92L96.43,91.11L97.01,125.73L97.6,126.6L98.18,193.69L98.76,138.79L99.35,150.18L99.93,116.83L100.52,183.1L101.1,138.49L101.68,144.91L102.27,130.35L103.43,181.67L104.02,159.58L104.6,159.78L105.19,164.5L106.94,101.55L107.52,142.85L108.11,116.27L108.69,118.76L109.27,100.79L109.86,179.36L110.44,171.43L111.03,119.61L111.61,173.23L112.19,114.01L112.78,156.9L113.36,130.55L113.94,180.79L114.53,145.95L115.11,179.52L115.7,104.32L116.11,166.8L116.69,133.67L117.86,165.16L118.44,187.59L119.02,84.61L119.61,131.49L120.19,134.48L120.78,183.66L121.36,172.89L121.94,86.34L122.53,162.54L123.11,129.2L123.7,169.19L124.28,124.95L124.86,146.43L125.45,140.99L126.03,153.7L126.61,140.55L127.2,189.76L127.78,178.09L128.37,126.4L128.95,177.77L129.53,112.32L130.7,166.05L131.29,159.32L131.87,145.61L132.45,102.07L133.62,163.62L134.21,146.74L134.79,134.58L135.37,179L135.96,118.66L136.54,183.33L137.12,143.82L137.71,163.83L138.29,154.18L138.88,178.15L139.46,115.22L140.04,170.51L141.21,195.25L141.8,120.33L142.38,166.9L142.96,126.73L143.55,166.68L144.13,160.33L144.72,165.12L145.12,112.37L145.71,152.64L146.88,169.88L147.46,129.46L148.04,181.67L148.63,156.35L149.21,180.89L149.8,151.34L150.38,217.1L150.96,177.53L151.55,141.1L152.13,157.91L153.3,203.21L153.88,198.72L154.47,127.99L155.05,146.37L155.63,102.95L156.22,92.36L156.8,166.84L157.39,197.73L157.97,127.34L159.72,185.46L160.31,173.94L160.89,206.12L161.47,194.5L162.64,154.23L163.22,162.45L163.81,177.73L164.39,145.47L165.56,209.62L166.14,196.67L167.31,171.7L167.9,180.67L169.06,119.63L169.65,180.96L170.23,128.79L170.81,182.84L171.4,148.38L171.98,155.39L172.57,176.91L173.15,167.57L173.73,120.81L174.73,181.43L175.31,169.27L175.89,142.88L176.48,163.97L177.06,202.79L177.65,185.04L178.23,187.12L178.81,140.74L179.4,182.09L179.98,164.08L180.57,120.59L181.15,158.14L181.73,209.55L182.32,182.79L183.49,155.25L184.07,163.77L185.24,154.27L185.82,130.55L186.4,152.26L186.99,121.49L187.57,170.62L188.16,143.55L188.74,122.26L189.32,159.51L189.91,168.92L190.49,96.89L191.08,109.12L191.66,162.02L192.83,215L193.41,131.15L194,211.06L194.58,201.17L195.16,157.99L195.75,76.58L196.33,156.24L196.91,164.02L197.5,191.24L198.08,234.65L198.67,118.87L199.25,83.74L199.83,155.78L200.42,162.63L201,194.14L201.59,145.1L202.17,158.01L202.75,167.24L203.16,166.95L203.75,132.43L204.91,154.62L205.5,167.07L206.08,154.38L206.67,196.69L207.83,128.66L208.42,129.92L209,83.22L209.58,184.5L210.17,199.43L210.75,198.15L211.34,165.78L212.5,188.9L213.09,161.13L213.67,195.59L214.26,180.99L214.84,109.9L215.42,208.43L216.01,143.92L216.59,184.5L217.18,160.91L217.76,190.73L218.34,129.59L218.93,143.39L219.51,145.21L220.09,190.5L220.68,176.78L221.26,197.15L221.85,165.9L222.43,178.01L223.01,121.5L224.18,182.45L224.77,179.37L225.35,200.33L225.93,148.87L226.52,210.62L227.1,156.09L228.27,181.81L228.85,135.33L229.44,211.57L230.02,150.31L230.6,154.66L231.19,178.36L231.77,218.95L232.18,164.05L232.76,163.09L233.35,106.43L234.52,188.44L235.1,91.77L235.68,188.52L236.27,146.9L237.44,203.51L238.02,125.66L238.6,195.39L239.19,162.83L240.36,220.22L240.94,141.61L242.11,189.84L242.69,171.59L243.27,216.96L243.86,161.37L245.03,168.94L245.61,202.65L246.19,192.14L246.78,158.78L247.36,180.98L247.95,179.72L248.53,162.66L249.11,156.7L249.7,159.79L250.28,141.04L250.87,146.22L251.45,164.05L252.03,195.23L252.62,150.51L253.78,137.03L254.37,152.53L254.95,138.4L255.54,139.12L256.12,154.67L256.7,190.89L257.29,163.45L259.04,177.95L259.62,151.2L260.21,132.46L260.79,172.7L261.78,199.5L262.37,168.11L262.95,176.84L263.54,132.95L264.12,124.11L264.7,126.88L265.29,167.5L265.87,161.05L266.45,181.98L267.62,146.97L268.21,170.49L269.96,194.82L270.54,121.98L271.13,212.58L271.71,105.8L272.29,203.32L272.88,158.32L273.46,163.45L274.05,159.61L274.63,109.57L275.21,203.5L276.38,141.05L276.96,168.21L277.55,174.8L278.13,143.72L278.72,169.81L279.3,144.02L280.47,181.67L281.05,154.03L281.64,152.77L282.22,148L282.8,132.43L283.39,198.38L283.97,148.02L284.56,214.17L285.14,165.41L285.72,200.42L286.31,159.03L286.89,160.53L287.47,169.24L288.06,212.45L288.64,166.06L289.81,152.14L290.22,208.69L290.8,189.92L291.39,132.03L292.55,192.6L293.14,178.31L293.72,168.73L294.31,172L295.47,163.55L296.06,176.38L296.64,145.33L297.23,180.62L297.81,108.59L298.39,191.17L299.56,116.21L300.14,169.65L300.73,173.52L301.31,169.53L301.9,187.31L302.48,135.05L303.06,216.03L303.65,162.49L304.23,138.76L304.82,157.98L305.4,152.41L305.98,152.76L306.57,163.96L307.74,187.44L308.32,199.52L308.9,204.46L309.49,106.37L310.07,165.27L310.65,146.93L311.24,132.45L311.82,138.46L312.41,161.16L312.99,113.04L313.57,150.39L314.16,122L314.74,145.66L315.33,140.29L315.91,146.94L316.49,198.15L317.08,126.75L317.66,184.9L318.25,127.47L319.24,190.07L319.82,126.29L320.99,178.73L321.57,135.39L322.16,192.39L322.74,166.74L323.91,162.11L324.49,201.87L325.08,138.96L325.66,179.29L326.24,159.23L326.83,109.54L327.41,181.5L328,157.27L328.58,146.64L329.16,156.15L329.75,125.3L330.33,182.57L330.92,160.69L331.5,163.64L332.08,178.63L333.25,116.81L333.84,120.45L334.42,187.87L335,152.02L335.59,223.75L336.17,185.28L336.75,208.01L337.34,202.43L337.92,175.3L338.51,170.99L339.09,156.24L339.67,211.84L340.26,170.04L340.84,187.66L341.43,135.98L342.01,184.18L342.59,148.06L343.18,140.7L343.76,149.96L344.34,139.48L344.93,189.32L346.1,136.28L346.68,209.55L347.26,191.21L347.85,133.87L348.84,174.18L349.42,145.54L350.01,136.94L350.59,164.99L351.18,191.08L351.76,168.64L352.34,146.4L352.93,170.64L353.51,125.19L354.1,198.45L354.68,132.12L355.26,182.64L355.85,140.25L356.43,193.34L357.02,203.6L357.6,177.42L358.18,222.42L358.77,184.56L359.35,165.19L359.93,185.17L360.52,123.91L361.1,157.54L362.27,191.46L362.85,168.24L363.44,124.99L364.02,135.95L364.61,156.17L365.19,199.78L365.77,180.49L366.94,85.17L367.53,134.95L369.28,195.01L369.86,181.71L370.44,195.16L371.03,139.99L371.61,144.95L372.2,188.81L372.78,147.74L373.36,169.97L374.53,176.23L375.12,173.74L376.28,189.22L376.87,158.95L377.28,173.27L377.86,220.16L379.61,148.74L380.2,199.91L380.78,163.37L381.36,168.11L381.95,168.87L382.53,212.1L383.11,177.03L383.7,180.35L384.28,171.63L385.45,158.5L386.03,158.02L386.62,149.34L387.2,128.97L387.79,211.18L388.37,178.99L389.54,207.3L390.12,163.11L390.71,221.88L391.29,181.79L392.46,169.45L393.04,97.76L394.21,193.08L394.79,140.45L395.38,147.08L395.96,185.86L396.54,197.56L397.13,97.37L398.3,163.92L398.88,169.48L399.46,173.36L400.05,170.12L400.63,141.58L401.22,177.03L401.8,148.55L402.38,169.26L402.97,182.12L403.55,135.75L404.13,181.78L404.72,160.08L405.89,149.02L406.29,214.74L407.46,176.72L408.05,167.28L408.63,173.42L409.21,152.38L409.8,165.2L410.38,195.45L410.97,133.96L411.55,164.82L412.13,170.22L412.72,212.27L413.3,166.42L413.89,181L415.05,194.02L415.64,190.5L416.22,178.17L416.8,213.09L417.97,140.41L418.56,194.71L419.14,212.53L419.72,193.61L420.31,207.39L420.89,129.64L421.48,182.63L422.06,140.39L422.64,179.81L423.23,142.12L423.81,227.31L424.4,166L425.56,182.76L426.15,145.85L426.73,187.91L427.31,171.1L427.9,113.31L428.48,188.24L429.07,161.73L429.65,183.79L430.82,165L431.4,173.16L431.99,139.4L432.57,195.48L433.74,126.8L434.32,202.03L434.91,141.3L435.31,190.71L435.9,191.68L436.48,208.52L437.07,165.35L437.65,189.8L438.82,181.02L439.4,214.29L439.98,204.91L440.57,119.43L441.15,122.82L441.74,191.03L442.32,111.66L442.9,232.65L444.07,167.51L444.66,194.82L445.24,160.62L445.82,226.31L446.41,112.15L446.99,144.33L447.58,166.55L448.16,230.7L448.74,196.65L449.33,129.91L449.91,171.98L450.49,166.62L451.08,240.57L451.66,176.97L452.25,177.95L452.83,205.73L454,143.44L454.58,154.59L455.17,183.32L455.75,172.09L456.33,120.15L456.92,160.17L457.5,190.86L458.09,186.93L458.67,203.99L459.25,156.5L459.84,225.79L461,81.57L461.59,171.34L462.17,130.5L462.76,207.51L463.34,129.15L463.92,157.25L464.33,151.86L464.92,165.19L465.5,193.5L466.08,181.16L466.67,222.18L467.25,173.29L467.84,175.05L468.42,163.9L469,155.34L469.59,177.23L470.17,190.46L470.76,149.59L471.34,182.18L471.92,147.68L473.09,199.08L473.67,166.61L474.26,135.96L474.84,179.61L475.43,141.67L476.01,201.59L476.59,219.92L477.18,189.59L477.76,199.75L478.35,150.32L478.93,154.78L479.51,191.47L480.1,155.17L480.68,178.7L481.27,227.15L481.85,159.07L482.43,192.17L483.02,190.56L483.6,131.11L484.18,210.5L484.77,195.89L485.35,159.06L485.94,156.67L486.52,166.7L487.1,159.25L487.69,228.2L488.27,160.21L488.86,169.56L489.44,157.4L490.02,84.82L490.61,183.21L491.19,120L491.78,193.22L492.36,179.21L492.94,201.7L493.35,186.46L493.94,220.99L494.52,121.43L495.1,168.65L495.69,103.42L496.27,201.67L496.86,193.95L497.44,205.27L498.61,117.36L499.19,123.33L501.53,232.3L502.11,181.91L502.69,134.46L503.28,148.76L503.86,132.25L504.45,201.62L505.03,188.46L505.61,199.53L506.78,161.85L507.36,204.31L507.95,200.23L508.53,119.58L509.12,212.64L509.7,160.83L510.28,181.74L510.87,141.91L511.45,209.95L512.04,150.15L512.62,180.05L513.2,170.38L513.79,171.27L514.37,178.47L514.96,202.3L515.54,185.89L516.71,139.97L517.29,179.27L517.87,193.71L518.46,189.44L519.63,123.19L520.21,167.33L520.79,193.46L521.38,125.67L521.96,196.55L522.37,161.57L522.95,177.74L524.12,142.27L524.71,174.55L525.29,169.75L525.87,186.71L526.46,186.42L527.04,135.9L528.21,204.75L528.79,162.33L529.38,159.09L529.96,163.04L530.55,191.67L531.13,171.69L531.71,188.62L532.3,168.31L533.46,226.19L534.05,198.74L534.63,151.95L535.22,186.13L535.8,163.95L536.38,230.63L536.97,173.76L537.55,228.97L538.72,176.42L539.3,170.07L539.89,190.46L540.47,181.29L541.06,168.1L541.64,203.22L542.22,177.05L542.81,191.83L543.39,176.47L543.97,184.77L545.14,207.65L545.73,141.86L546.31,202.55L546.89,197.09L547.48,188.43L548.06,189.29L548.65,220.55L549.23,200.32L549.81,224.4L550.4,217.2L550.98,200.31L551.39,252.01L551.97,190.94L552.56,102.58L553.14,211.92L554.31,135.09L554.89,159.28L556.06,212.5L556.64,193.13L557.23,180.57L557.81,182.39L558.4,148.83L559.56,187.67L560.15,166.15L560.73,221.7L561.32,138.12L561.9,219.11L562.48,151.45L563.65,177.2L564.24,158.19L564.82,211.29L565.4,132.7L565.99,214.93L566.57,204.39L567.15,228.46L567.74,180.67L568.32,220.05L569.49,147.11L570.07,170.86L570.66,190.19L571.24,171.46L572.41,117L572.99,221.48L573.58,159.25L574.16,168.07L574.75,209.71L575.33,143.55L575.91,210L577.08,180.99L577.66,183.73L578.25,177.73L578.83,159.11L580,210.65" style="vector-effect: non-scaling-stroke; fill: none; stroke: rgb(31, 119, 180); stroke-opacity: 1; stroke-width: 2px; opacity: 1;"/></g><g class="points"/><g class="text"/></g></g></g><g class="overplot"/><path class="xlines-above crisp" d="M0,0" style="fill: none;"/><path class="ylines-above crisp" d="M0,0" style="fill: none;"/><g class="overlines-above"/><g class="xaxislayer-above"><g class="xtick"><text text-anchor="middle" x="0" y="403" transform="translate(60,0)" style="font-family: 'Open Sans', verdana, arial, sans-serif; font-size: 12px; fill: rgb(68, 68, 68); fill-opacity: 1; white-space: pre;">0</text></g><g class="xtick"><text text-anchor="middle" x="0" y="403" transform="translate(205.97,0)" style="font-family: 'Open Sans', verdana, arial, sans-serif; font-size: 12px; fill: rgb(68, 68, 68); fill-opacity: 1; white-space: pre;">5k</text></g><g class="xtick"><text text-anchor="middle" x="0" y="403" transform="translate(351.94,0)" style="font-family: 'Open Sans', verdana, arial, sans-serif; font-size: 12px; fill: rgb(68, 68, 68); fill-opacity: 1; white-space: pre;">10k</text></g><g class="xtick"><text text-anchor="middle" x="0" y="403" transform="translate(497.91,0)" style="font-family: 'Open Sans', verdana, arial, sans-serif; font-size: 12px; fill: rgb(68, 68, 68); fill-opacity: 1; white-space: pre;">15k</text></g></g><g class="yaxislayer-above"><g class="ytick"><text text-anchor="end" x="59" y="4.199999999999999" transform="translate(0,373.5)" style="font-family: 'Open Sans', verdana, arial, sans-serif; font-size: 12px; fill: rgb(68, 68, 68); fill-opacity: 1; white-space: pre;">0</text></g><g class="ytick"><text text-anchor="end" x="59" y="4.199999999999999" transform="translate(0,324.01)" style="font-family: 'Open Sans', verdana, arial, sans-serif; font-size: 12px; fill: rgb(68, 68, 68); fill-opacity: 1; white-space: pre;">0.2</text></g><g class="ytick"><text text-anchor="end" x="59" y="4.199999999999999" transform="translate(0,274.52)" style="font-family: 'Open Sans', verdana, arial, sans-serif; font-size: 12px; fill: rgb(68, 68, 68); fill-opacity: 1; white-space: pre;">0.4</text></g><g class="ytick"><text text-anchor="end" x="59" y="4.199999999999999" transform="translate(0,225.03)" style="font-family: 'Open Sans', verdana, arial, sans-serif; font-size: 12px; fill: rgb(68, 68, 68); fill-opacity: 1; white-space: pre;">0.6</text></g><g class="ytick"><text text-anchor="end" x="59" y="4.199999999999999" transform="translate(0,175.54000000000002)" style="font-family: 'Open Sans', verdana, arial, sans-serif; font-size: 12px; fill: rgb(68, 68, 68); fill-opacity: 1; white-space: pre;">0.8</text></g><g class="ytick"><text text-anchor="end" x="59" y="4.199999999999999" transform="translate(0,126.05)" style="font-family: 'Open Sans', verdana, arial, sans-serif; font-size: 12px; fill: rgb(68, 68, 68); fill-opacity: 1; white-space: pre;">1</text></g><g class="ytick"><text text-anchor="end" x="59" y="4.199999999999999" transform="translate(0,76.56)" style="font-family: 'Open Sans', verdana, arial, sans-serif; font-size: 12px; fill: rgb(68, 68, 68); fill-opacity: 1; white-space: pre;">1.2</text></g></g><g class="overaxes-above"/></g></g><g class="polarlayer"/><g class="ternarylayer"/><g class="geolayer"/><g class="pielayer"/><g class="glimages"/><defs id="topdefs-594737"><g class="clips"/></defs><g class="layer-above"><g class="imagelayer"/><g class="shapelayer"/></g><g class="infolayer"><g class="g-gtitle"><text class="gtitle" x="350" y="30" text-anchor="middle" style="font-family: 'Open Sans', verdana, arial, sans-serif; font-size: 17px; fill: rgb(68, 68, 68); opacity: 1; font-weight: normal; white-space: pre;">train loss</text></g><g class="g-xtitle"/><g class="g-ytitle"/></g></svg>