<svg class="main-svg" xmlns="http://www.w3.org/2000/svg" xmlns:xlink="http://www.w3.org/1999/xlink" width="700" height="450" style="" viewBox="0 0 700 450"><rect x="0" y="0" width="700" height="450" style="fill: rgb(255, 255, 255); fill-opacity: 1;"/><defs id="defs-6e0ff1"><g class="clips"><clipPath id="clip6e0ff1xyplot" class="plotclip"><rect width="580" height="330"/></clipPath><clipPath class="axesclip" id="clip6e0ff1x"><rect x="60" y="0" width="580" height="450"/></clipPath><clipPath class="axesclip" id="clip6e0ff1y"><rect x="0" y="60" width="700" height="330"/></clipPath><clipPath class="axesclip" id="clip6e0ff1xy"><rect x="60" y="60" width="580" height="330"/></clipPath></g><g class="gradients"/></defs><g class="bglayer"/><g class="layer-below"><g class="imagelayer"/><g class="shapelayer"/></g><g class="cartesianlayer"><g class="subplot xy"><g class="layer-subplot"><g class="shapelayer"/><g class="imagelayer"/></g><g class="gridlayer"><g class="x"><path class="xgrid crisp" d="M0,60v330" transform="translate(132.59,0)" style="stroke: rgb(238, 238, 238); stroke-opacity: 1; stroke-width: 1px;"/><path class="xgrid crisp" d="M0,60v330" transform="translate(205.17,0)" style="stroke: rgb(238, 238, 238); stroke-opacity: 1; stroke-width: 1px;"/><path class="xgrid crisp" d="M0,60v330" transform="translate(277.76,0)" style="stroke: rgb(238, 238, 238); stroke-opacity: 1; stroke-width: 1px;"/><path class="xgrid crisp" d="M0,60v330" transform="translate(350.34,0)" style="stroke: rgb(238, 238, 238); stroke-opacity: 1; stroke-width: 1px;"/><path class="xgrid crisp" d="M0,60v330" transform="translate(422.93,0)" style="stroke: rgb(238, 238, 238); stroke-opacity: 1; stroke-width: 1px;"/><path class="xgrid crisp" d="M0,60v330" transform="translate(495.52,0)" style="stroke: rgb(238, 238, 238); stroke-opacity: 1; stroke-width: 1px;"/><path class="xgrid crisp" d="M0,60v330" transform="translate(568.1,0)" style="stroke: rgb(238, 238, 238); stroke-opacity: 1; stroke-width: 1px;"/></g><g class="y"><path class="ygrid crisp" d="M60,0h580" transform="translate(0,304.01)" style="stroke: rgb(238, 238, 238); stroke-opacity: 1; stroke-width: 1px;"/><path class="ygrid crisp" d="M60,0h580" transform="translate(0,234.53)" style="stroke: rgb(238, 238, 238); stroke-opacity: 1; stroke-width: 1px;"/><path class="ygrid crisp" d="M60,0h580" transform="translate(0,165.04000000000002)" style="stroke: rgb(238, 238, 238); stroke-opacity: 1; stroke-width: 1px;"/><path class="ygrid crisp" d="M60,0h580" transform="translate(0,95.55)" style="stroke: rgb(238, 238, 238); stroke-opacity: 1; stroke-width: 1px;"/></g></g><g class="zerolinelayer"><path class="xzl zl crisp" d="M0,60v330" transform="translate(60,0)" style="stroke: rgb(68, 68, 68); stroke-opacity: 1; stroke-width: 1px;"/><path class="yzl zl crisp" d="M60,0h580" transform="translate(0,373.5)" style="stroke: rgb(68, 68, 68); stroke-opacity: 1; stroke-width: 1px;"/></g><path class="xlines-below"/><path class="ylines-below"/><g class="overlines-below"/><g class="xaxislayer-below"/><g class="yaxislayer-below"/><g class="overaxes-below"/><g class="plot" transform="translate(60, 60)" clip-path="url(#clip6e0ff1xyplot)"><g class="scatterlayer mlayer"><g class="trace scatter trace2d33b4" style="stroke-miterlimit: 2; opacity: 1;"><g class="fills"/><g class="errorbars"/><g class="lines"><path class="js-line" d="M0,313.5L0.76,152.2L1.49,180.06L2.94,137.49L3.67,165.32L4.39,143.59L5.12,196.35L5.84,133.82L6.57,153.84L7.29,75.72L8.02,160.27L8.75,119.88L9.47,172.92L10.92,158.65L11.65,134.21L12.38,161.15L13.1,145.22L14.55,174.48L15.28,127.83L16.01,144.41L16.73,134.84L17.46,146.96L18.18,100.26L19.63,189.03L20.36,217.58L21.81,88.39L22.54,129.62L23.26,138.75L23.99,112.24L24.72,162.17L25.44,115.22L26.17,169.93L26.89,122.44L27.62,171.66L28.34,139.86L29.07,181.99L29.8,167.03L30.52,146.49L31.25,78.51L31.97,179.69L32.7,140.69L33.43,176.07L34.15,160.09L34.88,162.32L35.6,49.38L36.33,186.64L37.06,142.79L37.78,148.41L38.51,183.91L39.23,105.54L39.96,170.49L40.68,130.66L41.41,166.12L42.86,181.95L43.59,174.26L44.31,159.08L45.04,192.64L45.77,163.41L46.49,176.59L47.22,106.24L47.94,176.87L48.67,190.42L49.39,140.84L50.85,193.88L51.57,152.8L52.3,144.38L53.02,145.72L53.75,196.22L54.48,145.5L55.2,181.7L55.93,110.14L56.65,175.69L57.38,132.13L58.11,229.42L58.83,192.57L59.56,193.24L60.28,222.89L61.01,115.42L61.73,156.21L63.19,133.16L63.91,170.33L64.64,187.4L65.36,178.1L66.09,178.74L66.82,181.31L67.54,161.49L68.27,164.67L68.99,192.34L69.72,160.42L70.44,133.75L71.17,178.39L71.9,123.57L72.62,152.64L74.8,195.34L75.53,182.97L76.25,163.99L76.98,173.45L78.43,219.24L79.16,193.36L79.88,143.01L80.61,193.78L81.33,149.33L82.06,179.3L82.78,130.45L83.51,151.51L85.69,136.94L86.41,212.9L87.87,190.95L88.59,194.96L89.32,188.9L90.04,122.05L91.49,215.83L92.22,182.12L92.95,184.54L93.67,206.9L94.4,190.76L95.12,92.68L95.85,170.27L96.58,135.44L97.3,170.52L98.03,111.14L98.75,219.98L99.48,163.31L100.21,187.45L100.93,186.16L101.66,105.89L102.38,118.85L103.83,204.02L104.56,130.17L106.01,159.67L106.74,155.46L107.46,201.19L108.19,147.19L108.92,94.95L109.64,118.51L110.37,116.41L111.09,154.78L111.82,183.28L112.54,171.79L114,113.76L114.72,126.4L115.45,126.33L116.17,173.37L116.9,196.74L117.63,123.92L119.8,202.84L120.53,182.61L121.26,193.17L121.98,164.64L122.71,194.52L123.43,166.42L124.16,213.81L124.88,122.92L126.34,165.79L127.06,133.06L128.51,218.31L129.24,121.1L129.97,120.81L130.69,188.94L131.42,118.06L132.14,145.33L132.87,147.45L133.59,166.19L134.32,137.24L135.05,167.47L135.77,153.82L136.5,171.67L137.22,190.07L137.95,185.08L138.68,183.47L139.4,202.13L140.13,157.13L140.85,194.59L142.31,138.1L143.03,230.21L143.76,212.59L144.48,172.77L145.21,182.33L145.93,175.85L146.66,203.18L147.39,138.21L148.11,232.99L148.84,215.73L149.56,142.7L150.29,189.17L151.02,212.1L151.74,184.05L152.47,148.96L153.19,215.93L153.92,183.19L154.64,91.25L155.37,173.17L156.1,147.05L156.82,165.01L157.55,209.53L158.27,123.18L159,164.12L159.73,161.62L160.45,200.15L161.18,143.21L161.9,152.46L162.63,130.75L163.36,196.57L164.08,232.91L164.81,176.11L165.53,180.25L166.26,202.27L166.98,165.72L167.71,179.46L168.44,170.62L169.16,174.94L169.89,182.66L170.61,129.48L171.34,207.67L172.07,193.61L173.52,139.68L174.24,216.06L174.97,159.79L175.69,223.44L177.15,143.89L177.87,174.77L178.6,194.49L179.32,160.86L180.05,211.05L180.78,173.28L181.5,180.06L182.23,175.48L182.95,126.81L183.68,190.68L184.41,232.51L185.13,175.18L185.86,164.86L186.58,179.99L187.31,195.2L188.03,159.84L189.49,256.5L190.21,182.63L191.66,103.27L192.39,120.5L193.12,181.42L193.84,172.81L194.57,200.6L195.29,157.28L196.02,172.73L196.74,161.9L198.2,183.74L198.92,171.42L199.65,215.09L200.37,181.74L201.1,158.78L201.83,206.14L202.55,136.67L203.28,187.62L204,202.8L204.73,164.4L205.46,191.79L206.18,175.73L206.91,148.9L207.63,195.93L208.36,184.57L209.08,217.7L209.81,194.99L210.54,233.61L211.26,233.89L211.99,183.36L212.71,189.7L213.44,184.12L214.17,210.29L214.89,177.65L215.62,199.2L216.34,187.33L217.07,93.57L217.79,193.64L218.52,183.13L219.25,161.76L219.97,229.01L220.7,182.58L221.42,128.34L222.15,160.43L224.33,178.36L225.05,169.9L225.78,224.93L226.51,185.83L227.23,171.39L227.96,198.62L228.68,201.39L229.41,180.33L230.86,160.59L231.59,161.09L232.31,188.48L233.04,154.37L234.49,208.35L235.22,185.63L235.94,203.16L236.67,178.71L238.12,159.14L238.84,197.63L239.57,198.33L240.3,194.76L241.02,261.69L241.75,183.08L242.47,173.49L243.2,210.39L243.93,187.5L244.65,237.07L245.38,150.64L246.1,202.02L246.83,244.36L247.56,210.19L248.28,16.5L249.01,198.15L249.73,144.84L250.46,250.13L251.91,96.92L252.64,133.71L253.36,106.87L254.09,199.94L256.27,125.83L256.99,205.13L257.72,144.35L258.44,203.9L259.17,184.17L259.89,186.82L260.62,168.89L261.35,191.63L262.07,207.25L262.8,195.16L263.52,188.08L264.25,225.66L264.98,233.1L265.7,231.1L266.43,207.09L267.15,138.56L267.88,212.65L268.61,196.72L269.33,180.15L270.06,194.69L270.78,213.12L271.51,193.58L272.23,182.56L272.96,142.72L273.69,199.22L274.41,100.93L275.14,212.29L275.86,170.93L276.59,229.56L277.32,193.69L278.04,158.34L278.77,211.58L279.49,206.88L280.22,156.89L280.94,229.64L281.67,160.69L282.4,199.38L283.12,149.62L283.85,158.21L284.57,138.23L286.75,218.42L287.48,190.19L288.2,182.28L288.93,210.98L289.66,193.69L290.38,224.69L291.83,178.8L292.56,215.41L293.28,222.15L294.01,215.28L294.74,224.85L295.46,250.12L296.19,166.91L296.91,189.97L298.37,139.69L299.09,182.93L299.82,98.2L300.54,134.73L301.27,154.41L301.99,219.54L302.72,195.97L303.45,129.89L304.9,190.96L305.62,184.76L306.35,165.05L307.08,231.9L307.8,207.27L308.53,148.96L309.25,234.9L309.98,150.28L310.71,153.93L311.43,181.18L312.16,135.41L312.88,226.55L314.33,120.51L315.06,159.72L316.51,218.09L317.24,214.58L317.96,226.18L318.69,187.7L319.42,249.47L320.14,221.71L320.87,223.42L321.59,237.54L323.04,188.06L323.77,170.8L324.5,172.53L325.22,208.56L325.95,208.32L326.67,217.09L327.4,212.62L328.13,180.85L328.85,233.34L329.58,233.2L330.3,203.29L331.76,231.63L332.48,203.83L333.93,160.65L334.66,199.96L335.38,221.23L336.11,165.29L336.84,196.38L337.56,164.43L338.29,162.59L339.01,241.58L341.19,186.6L341.92,159.38L342.64,197.73L343.37,85.39L344.09,225.93L344.82,221.65L346.27,125.47L347,197.94L347.72,217.9L348.45,167.88L349.9,142.27L350.63,236.57L351.35,174.39L352.08,196.24L353.53,215L354.26,212.57L354.98,166.51L355.71,179.15L356.43,198.11L357.16,241.71L357.89,226.81L358.61,176.07L359.34,197.12L360.06,152.68L361.52,216.32L362.24,145.82L362.97,182.97L363.69,138.8L364.42,219.07L365.14,191.86L365.87,157.18L366.6,189.92L367.32,180.64L368.05,217.93L368.77,152L369.5,239.56L370.23,166.58L370.95,172.84L371.68,193.04L372.4,191.55L373.13,195.52L373.86,170.35L374.58,235.99L375.31,184.68L376.03,212.29L376.76,200.76L377.48,174.09L378.21,186.16L378.94,168.9L379.66,239.62L381.11,152.45L381.84,196.43L382.57,228.35L383.29,219.14L384.02,197.07L384.74,221.4L385.47,210.76L386.19,215.15L386.92,237.25L387.65,164.06L388.37,230.06L389.1,207.14L389.82,203.21L390.55,137.07L392,232.16L392.73,192.74L393.45,174.55L394.18,186.16L394.91,149.43L395.63,205.72L396.36,176.55L397.08,229.19L397.81,190.63L398.53,203.09L399.99,200.85L400.71,186.02L401.44,196.41L402.16,178.51L402.89,208.7L403.62,171.34L404.34,187.69L405.07,232.54L405.79,86.38L406.52,197.63L407.24,203.42L407.97,193.55L408.7,201.04L409.42,235.01L410.15,233.98L410.87,225.37L411.6,150.03L412.33,198.89L413.78,233.9L414.5,214.26L415.23,183.88L415.96,239.03L416.68,92.59L417.41,111.8L418.13,244.25L418.86,209.09L419.58,208.08L420.31,180.3L421.04,152.05L421.76,238.21L423.21,184.55L423.94,194.03L424.67,200.15L425.39,237.58L426.12,183.85L426.84,188.37L427.57,203.31L428.29,193.05L429.02,208.47L429.75,131.73L431.2,234.12L431.92,156.57L432.65,225.35L433.38,199.43L434.1,171.03L434.83,238.57L436.28,198.6L437.01,213.22L437.73,157.45L438.46,224.48L439.18,222.42L439.91,240.99L441.36,176.74L442.09,231.05L442.81,188.08L443.54,230.9L444.26,248.51L444.99,192.35L445.72,221.3L446.44,199.86L447.17,197.98L447.89,219.13L448.62,189.52L449.34,219.73L450.07,211.44L450.8,243.47L451.52,213.34L452.25,139.09L452.97,121.55L453.7,200.67L454.43,200.45L455.15,180.82L455.88,232.66L456.6,176.46L457.33,233.1L458.06,167.99L458.78,161.54L459.51,180.32L460.23,171.19L460.96,175.62L461.68,190.7L462.41,162.6L463.14,248.11L463.86,245.45L464.59,226.14L465.31,202.93L466.04,233.06L468.22,214.43L468.94,246.75L469.67,227.83L470.39,184.49L471.12,188.04L471.85,200.04L472.57,215.08L473.3,178.45L474.02,200.94L474.75,184.25L475.48,154.75L476.2,166.61L476.93,161.82L477.65,234.63L479.11,170.3L479.83,192.03L480.56,178.35L481.28,220.69L482.01,197.12L482.73,137.24L483.46,260.18L484.19,195.38L484.91,222.91L485.64,201.5L486.36,233.99L487.09,180.64L488.54,216.07L489.27,213.23L489.99,217.57L490.72,240.16L492.17,190.89L492.9,181.36L493.62,248.6L494.35,223.09L495.07,161.5L495.8,210.32L496.53,183.55L497.25,202.83L497.98,220.93L498.7,176.82L499.43,180.55L500.16,238.18L500.88,184.53L501.61,212.08L503.78,176.92L504.51,246.8L505.24,174.08L505.96,218.57L506.69,250.35L507.41,185.34L508.14,181.43L508.87,214.74L509.59,256.66L510.32,222.8L511.04,211.09L511.77,174.29L512.49,256.94L513.22,220.52L513.95,252.08L514.67,242.78L515.4,238.14L516.12,227.93L516.85,222.66L517.58,229.48L518.3,210.1L519.03,246.91L519.75,254.78L520.48,204.65L521.21,231.1L521.93,158.32L524.11,258.99L524.83,231.38L525.56,212.41L526.29,224.63L527.01,240.88L527.74,221.24L528.46,264.26L529.19,257.51L531.37,190.41L532.09,185.71L532.82,132.49L533.54,229.07L534.27,252.05L535,181.44L535.72,134.7L536.45,168.93L537.17,239.84L537.9,160.62L538.63,243.19L539.35,167.62L540.8,251.94L541.53,238.2L542.26,119.92L542.98,173.59L544.43,237.39L545.16,151.08L545.88,159.06L546.61,235.67L548.06,166.48L548.79,239.03L549.51,201.93L550.24,277.39L550.97,183.84L551.69,216.36L552.42,179.61L553.14,234.95L553.87,216.26L554.59,244.15L555.32,199.84L556.05,204.99L556.77,241.23L557.5,221.71L558.22,197.52L558.95,209.84L560.4,266.08L561.13,222.85L561.85,232.79L562.58,121.27L563.31,230.17L564.03,180.85L564.76,163.48L565.48,190.41L566.21,226.74L566.93,204.05L567.66,241.19L568.39,239.6L569.11,205.34L569.84,223.79L572.02,256.84L572.74,199.14L573.47,240.02L574.19,142.42L574.92,75.85L575.64,190.63L576.37,251.24L577.1,242.97L577.82,234.44L578.55,209.09L579.27,208.44L580,164.95" style="vector-effect: non-scaling-stroke; fill: none; stroke: rgb(31, 119, 180); stroke-opacity: 1; stroke-width: 2px; opacity: 1;"/></g><g class="points"/><g class="text"/></g></g></g><g class="overplot"/><path class="xlines-above crisp" d="M0,0" style="fill: none;"/><path class="ylines-above crisp" d="M0,0" style="fill: none;"/><g class="overlines-above"/><g class="xaxislayer-above"><g class="xtick"><text text-anchor="middle" x="0" y="403" transform="translate(60,0)" style="font-family: 'Open Sans', verdana, arial, sans-serif; font-size: 12px; fill: rgb(68, 68, 68); fill-opacity: 1; white-space: pre;">0</text></g><g class="xtick"><text text-anchor="middle" x="0" y="403" transform="translate(132.59,0)" style="font-family: 'Open Sans', verdana, arial, sans-serif; font-size: 12px; fill: rgb(68, 68, 68); fill-opacity: 1; white-space: pre;">2k</text></g><g class="xtick"><text text-anchor="middle" x="0" y="403" transform="translate(205.17,0)" style="font-family: 'Open Sans', verdana, arial, sans-serif; font-size: 12px; fill: rgb(68, 68, 68); fill-opacity: 1; white-space: pre;">4k</text></g><g class="xtick"><text text-anchor="middle" x="0" y="403" transform="translate(277.76,0)" style="font-family: 'Open Sans', verdana, arial, sans-serif; font-size: 12px; fill: rgb(68, 68, 68); fill-opacity: 1; white-space: pre;">6k</text></g><g class="xtick"><text text-anchor="middle" x="0" y="403" transform="translate(350.34,0)" style="font-family: 'Open Sans', verdana, arial, sans-serif; font-size: 12px; fill: rgb(68, 68, 68); fill-opacity: 1; white-space: pre;">8k</text></g><g class="xtick"><text text-anchor="middle" x="0" y="403" transform="translate(422.93,0)" style="font-family: 'Open Sans', verdana, arial, sans-serif; font-size: 12px; fill: rgb(68, 68, 68); fill-opacity: 1; white-space: pre;">10k</text></g><g class="xtick"><text text-anchor="middle" x="0" y="403" transform="translate(495.52,0)" style="font-family: 'Open Sans', verdana, arial, sans-serif; font-size: 12px; fill: rgb(68, 68, 68); fill-opacity: 1; white-space: pre;">12k</text></g><g class="xtick"><text text-anchor="middle" x="0" y="403" transform="translate(568.1,0)" style="font-family: 'Open Sans', verdana, arial, sans-serif; font-size: 12px; fill: rgb(68, 68, 68); fill-opacity: 1; white-space: pre;">14k</text></g></g><g class="yaxislayer-above"><g class="ytick"><text text-anchor="end" x="59" y="4.199999999999999" transform="translate(0,373.5)" style="font-family: 'Open Sans', verdana, arial, sans-serif; font-size: 12px; fill: rgb(68, 68, 68); fill-opacity: 1; white-space: pre;">0</text></g><g class="ytick"><text text-anchor="end" x="59" y="4.199999999999999" transform="translate(0,304.01)" style="font-family: 'Open Sans', verdana, arial, sans-serif; font-size: 12px; fill: rgb(68, 68, 68); fill-opacity: 1; white-space: pre;">0.2</text></g><g class="ytick"><text text-anchor="end" x="59" y="4.199999999999999" transform="translate(0,234.53)" style="font-family: 'Open Sans', verdana, arial, sans-serif; font-size: 12px; fill: rgb(68, 68, 68); fill-opacity: 1; white-space: pre;">0.4</text></g><g class="ytick"><text text-anchor="end" x="59" y="4.199999999999999" transform="translate(0,165.04000000000002)" style="font-family: 'Open Sans', verdana, arial, sans-serif; font-size: 12px; fill: rgb(68, 68, 68); fill-opacity: 1; white-space: pre;">0.6</text></g><g class="ytick"><text text-anchor="end" x="59" y="4.199999999999999" transform="translate(0,95.55)" style="font-family: 'Open Sans', verdana, arial, sans-serif; font-size: 12px; fill: rgb(68, 68, 68); fill-opacity: 1; white-space: pre;">0.8</text></g></g><g class="overaxes-above"/></g></g><g class="polarlayer"/><g class="ternarylayer"/><g class="geolayer"/><g class="pielayer"/><g class="glimages"/><defs id="topdefs-6e0ff1"><g class="clips"/></defs><g class="layer-above"><g class="imagelayer"/><g class="shapelayer"/></g><g class="infolayer"><g class="g-gtitle"><text class="gtitle" x="350" y="30" text-anchor="middle" style="font-family: 'Open Sans', verdana, arial, sans-serif; font-size: 17px; fill: rgb(68, 68, 68); opacity: 1; font-weight: normal; white-space: pre;">train loss</text></g><g class="g-xtitle"/><g class="g-ytitle"/></g></svg>