<svg class="main-svg" xmlns="http://www.w3.org/2000/svg" xmlns:xlink="http://www.w3.org/1999/xlink" width="700" height="450" style="" viewBox="0 0 700 450"><rect x="0" y="0" width="700" height="450" style="fill: rgb(255, 255, 255); fill-opacity: 1;"/><defs id="defs-4c67f7"><g class="clips"><clipPath id="clip4c67f7xyplot" class="plotclip"><rect width="580" height="330"/></clipPath><clipPath class="axesclip" id="clip4c67f7x"><rect x="60" y="0" width="580" height="450"/></clipPath><clipPath class="axesclip" id="clip4c67f7y"><rect x="0" y="60" width="700" height="330"/></clipPath><clipPath class="axesclip" id="clip4c67f7xy"><rect x="60" y="60" width="580" height="330"/></clipPath></g><g class="gradients"/></defs><g class="bglayer"/><g class="layer-below"><g class="imagelayer"/><g class="shapelayer"/></g><g class="cartesianlayer"><g class="subplot xy"><g class="layer-subplot"><g class="shapelayer"/><g class="imagelayer"/></g><g class="gridlayer"><g class="x"><path class="xgrid crisp" d="M0,60v330" transform="translate(132.59,0)" style="stroke: rgb(238, 238, 238); stroke-opacity: 1; stroke-width: 1px;"/><path class="xgrid crisp" d="M0,60v330" transform="translate(205.17,0)" style="stroke: rgb(238, 238, 238); stroke-opacity: 1; stroke-width: 1px;"/><path class="xgrid crisp" d="M0,60v330" transform="translate(277.76,0)" style="stroke: rgb(238, 238, 238); stroke-opacity: 1; stroke-width: 1px;"/><path class="xgrid crisp" d="M0,60v330" transform="translate(350.34,0)" style="stroke: rgb(238, 238, 238); stroke-opacity: 1; stroke-width: 1px;"/><path class="xgrid crisp" d="M0,60v330" transform="translate(422.93,0)" style="stroke: rgb(238, 238, 238); stroke-opacity: 1; stroke-width: 1px;"/><path class="xgrid crisp" d="M0,60v330" transform="translate(495.52,0)" style="stroke: rgb(238, 238, 238); stroke-opacity: 1; stroke-width: 1px;"/><path class="xgrid crisp" d="M0,60v330" transform="translate(568.1,0)" style="stroke: rgb(238, 238, 238); stroke-opacity: 1; stroke-width: 1px;"/></g><g class="y"><path class="ygrid crisp" d="M60,0h580" transform="translate(0,306.02)" style="stroke: rgb(238, 238, 238); stroke-opacity: 1; stroke-width: 1px;"/><path class="ygrid crisp" d="M60,0h580" transform="translate(0,238.54)" style="stroke: rgb(238, 238, 238); stroke-opacity: 1; stroke-width: 1px;"/><path class="ygrid crisp" d="M60,0h580" transform="translate(0,171.06)" style="stroke: rgb(238, 238, 238); stroke-opacity: 1; stroke-width: 1px;"/><path class="ygrid crisp" d="M60,0h580" transform="translate(0,103.58)" style="stroke: rgb(238, 238, 238); stroke-opacity: 1; stroke-width: 1px;"/></g></g><g class="zerolinelayer"><path class="xzl zl crisp" d="M0,60v330" transform="translate(60,0)" style="stroke: rgb(68, 68, 68); stroke-opacity: 1; stroke-width: 1px;"/><path class="yzl zl crisp" d="M60,0h580" transform="translate(0,373.5)" style="stroke: rgb(68, 68, 68); stroke-opacity: 1; stroke-width: 1px;"/></g><path class="xlines-below"/><path class="ylines-below"/><g class="overlines-below"/><g class="xaxislayer-below"/><g class="yaxislayer-below"/><g class="overaxes-below"/><g class="plot" transform="translate(60, 60)" clip-path="url(#clip4c67f7xyplot)"><g class="scatterlayer mlayer"><g class="trace scatter trace8ad7ec" style="stroke-miterlimit: 2; opacity: 1;"><g class="fills"/><g class="errorbars"/><g class="lines"><path class="js-line" d="M0,313.5L0.76,16.5L1.49,52.41L2.21,40.01L2.94,53.69L3.67,59.22L4.39,44.82L5.12,51.42L5.84,68.88L6.57,67.34L7.29,54.97L8.02,67.72L8.75,55.61L10.2,65.67L10.92,52.59L11.65,55.8L12.38,54.81L13.1,67.54L13.83,59.29L14.55,53.8L15.28,57.06L16.01,46.14L16.73,56.93L17.46,52.26L18.18,70.71L18.91,71.53L19.63,53.29L21.09,66.39L21.81,72.23L22.54,57.69L23.26,67.57L24.72,66.15L25.44,70.77L26.17,60.2L26.89,68.69L27.62,70.51L28.34,60.61L29.07,56.72L29.8,68.27L30.52,73.1L31.25,67.23L31.97,82.97L32.7,73.65L33.43,63.94L34.15,67.26L34.88,79.49L35.6,72.99L37.06,98.85L37.78,80.32L38.51,97.11L39.23,80.04L40.68,100.51L41.41,99.28L42.14,83.07L42.86,85.21L43.59,82.34L44.31,124.76L45.04,104.8L45.77,112.85L46.49,93.62L47.22,97.95L47.94,135.38L48.67,123.84L49.39,120.49L50.12,127.26L50.85,124.74L51.57,138.38L52.3,139.12L53.02,133.26L53.75,161.33L54.48,141.38L55.2,146.86L55.93,164.93L56.65,141.89L57.38,161.44L58.11,120L58.83,148.83L60.28,164.27L61.01,179.11L61.73,192.22L62.46,121.82L63.19,165.93L63.91,150.22L64.64,150.97L65.36,149.17L66.09,162.73L66.82,159.55L67.54,160.25L68.27,168.06L69.72,152.07L70.44,160.8L71.17,159.57L71.9,169.79L72.62,135.49L73.35,170.45L74.07,183.61L74.8,172.59L75.53,182.7L76.25,178.44L76.98,175.47L77.7,186.15L78.43,180.9L79.16,166.95L79.88,178.55L80.61,162.59L82.06,177.09L82.78,169.45L83.51,179.91L84.24,169.3L84.96,134.49L85.69,170.15L86.41,144.71L87.14,146.27L87.87,198.82L88.59,151.55L90.04,215.53L90.77,189.08L91.49,198.18L92.22,172.81L93.67,191.18L94.4,164.86L95.12,145.75L95.85,170.18L96.58,173.02L97.3,186.58L98.75,161.65L99.48,175.34L100.21,163.89L100.93,182.61L101.66,201.54L102.38,190.12L103.11,203.3L103.83,175.98L104.56,196.68L105.29,135.6L106.74,200.21L107.46,184.37L108.19,182.6L108.92,190.94L109.64,170.83L110.37,182.52L111.82,194.46L112.54,175.24L113.27,204.26L114,184.5L114.72,197.01L115.45,179.63L116.9,193.72L117.63,158.08L119.08,203.96L119.8,199.71L120.53,193.83L121.26,159.63L122.71,196.49L123.43,216.27L124.16,198.75L124.88,201.36L125.61,156.93L126.34,182.85L127.06,178.8L127.79,186.3L128.51,193.78L129.24,191.8L130.69,177.45L131.42,206.35L133.59,175.81L134.32,177.01L135.77,217.28L136.5,204.37L138.68,177.78L139.4,195.54L140.13,186.35L140.85,202.93L141.58,180.76L142.31,200.34L143.03,171.29L143.76,201.37L144.48,184.9L145.21,216.16L145.93,220.01L146.66,204.35L147.39,203.24L148.11,219.82L150.29,174.43L151.02,192.64L151.74,224.59L152.47,197.37L153.19,145.19L153.92,207.45L154.64,160.07L155.37,207.6L156.1,211.83L156.82,206.6L158.27,176.72L159,187.92L159.73,193.57L160.45,192.78L161.18,223.68L161.9,185.92L162.63,208.77L163.36,198.97L164.81,187.6L165.53,187.15L166.26,212.7L166.98,209.93L167.71,197.77L168.44,206.71L169.16,205.4L169.89,189.91L170.61,168.44L171.34,199.14L172.07,201.64L172.79,224.14L173.52,175.78L174.24,201.56L175.69,227.99L176.42,218L177.15,190.39L177.87,199.81L179.32,205.67L180.05,197.93L180.78,221.56L181.5,191.28L182.23,199.51L182.95,188.24L183.68,214.46L184.41,212.09L185.13,204.52L185.86,207.63L186.58,210.22L187.31,209.66L188.03,180.77L188.76,215.12L189.49,201.41L190.21,219.56L190.94,223.28L191.66,185.39L192.39,190.87L193.12,228L194.57,178.04L195.29,184.73L196.74,226.84L197.47,201.5L198.2,175.29L198.92,203.87L199.65,230.19L200.37,217.15L201.83,206.03L202.55,220.34L203.28,191.97L204,202.45L204.73,201.66L205.46,208.8L206.18,223.46L206.91,209.93L208.36,220.27L209.08,216.61L210.54,195.19L211.26,222.69L211.99,206.69L212.71,211.17L213.44,208.32L214.17,195.8L214.89,203.05L215.62,222.59L216.34,223.61L217.07,222.17L217.79,200.61L218.52,225.38L219.97,185.35L220.7,219.72L221.42,195.36L222.15,202.76L222.88,203.12L223.6,216.41L225.05,222.36L225.78,215.31L226.51,195.93L227.23,231.27L227.96,246.76L228.68,246.29L229.41,247.64L230.86,176.76L231.59,214.45L232.31,203.49L233.04,225.4L233.76,227.51L234.49,205.89L235.22,219.12L235.94,213.59L236.67,248.34L237.39,236.11L238.12,234.13L238.84,223.09L239.57,215.99L240.3,227.44L241.02,209.18L241.75,221.69L242.47,212.41L243.2,216.55L243.93,219.4L244.65,199.05L246.1,228.2L246.83,207.74L248.28,232.47L249.01,193.76L249.73,216.81L250.46,200.17L251.18,206.59L251.91,223.36L253.36,229.01L254.09,221.43L254.81,216.94L255.54,229.69L256.27,219.37L256.99,197L257.72,193.63L258.44,233.32L260.62,184.68L261.35,226.15L262.07,190.09L262.8,227.84L263.52,230.76L264.25,225.88L265.7,243.91L266.43,233.8L267.15,198.09L267.88,232.67L268.61,243.93L269.33,203.77L270.78,211.72L271.51,192.85L272.23,235.87L272.96,216.36L273.69,203.29L274.41,221.8L275.14,222.23L275.86,206.85L277.32,242.93L278.04,216.09L278.77,233.52L279.49,198.98L280.22,218.71L280.94,208.98L282.4,251.46L283.12,241.97L284.57,208.81L285.3,213.24L286.03,230.68L286.75,213.33L287.48,234.02L288.2,188.8L288.93,222.4L289.66,217.08L290.38,236.84L291.11,233.05L291.83,237.67L292.56,204.26L294.01,237.65L294.74,224.65L295.46,238.36L296.19,220.93L297.64,242.6L298.37,219.95L299.09,207.08L299.82,242.61L300.54,228.88L301.27,239.19L301.99,229.78L302.72,209.29L303.45,225.42L304.17,207.07L305.62,197.6L306.35,230.92L307.08,199.21L307.8,244.69L308.53,222.36L309.25,245.91L309.98,243.48L310.71,219.58L311.43,240.75L312.16,221.7L313.61,234.53L314.33,196.67L315.06,235.42L315.79,228.11L317.24,238.96L317.96,224.6L318.69,221.38L319.42,240.74L320.87,215.08L321.59,251.21L323.77,226.08L324.5,225.52L325.95,255.44L326.67,243.18L327.4,217.42L328.13,224.52L328.85,232.37L329.58,220.72L331.03,245.41L331.76,233.4L332.48,240.86L333.21,230.6L333.93,237.04L334.66,227.43L335.38,236.55L336.11,225.61L336.84,233.4L337.56,213.76L338.29,259.63L339.01,244.52L339.74,246.99L340.47,231.16L341.19,230.5L341.92,234.31L342.64,235L343.37,216.5L344.09,243.95L344.82,235.5L345.55,224L346.27,230.61L347.72,196.53L348.45,243.98L349.18,239.7L349.9,246.24L351.35,262.43L352.08,250.91L352.81,247.44L353.53,250.17L354.26,218.11L354.98,242.41L355.71,233.64L356.43,245.04L357.16,251.64L357.89,234.93L358.61,209.92L359.34,243.5L360.06,247.51L360.79,225.3L361.52,246.64L362.24,233.35L363.69,257.12L364.42,227.54L365.14,233.58L365.87,261.4L367.32,240.21L368.05,228.33L368.77,239.35L369.5,222.62L370.23,240.85L370.95,229.14L371.68,242.15L372.4,241.58L373.13,258.5L373.86,251.63L374.58,248.36L375.31,232.51L376.03,227.19L376.76,251.32L377.48,263.89L378.21,247.27L378.94,230.86L379.66,252.17L380.39,255.11L381.11,249.6L381.84,246.38L382.57,234.97L383.29,244.84L384.02,230.84L384.74,249.69L385.47,232.72L386.19,247.3L386.92,232.67L387.65,249.59L388.37,248.87L389.1,267.04L389.82,242.68L390.55,251.02L391.28,229.38L392,232.67L392.73,190.09L393.45,233.32L394.18,223.47L394.91,257.58L395.63,240.61L397.08,253.22L397.81,240.52L398.53,256.16L399.26,247.83L400.71,256.22L401.44,236.42L402.16,251.86L402.89,238.96L403.62,253.12L404.34,229.16L405.07,242.32L405.79,235.22L406.52,256.42L407.24,255.66L407.97,241.36L409.42,247.57L410.15,255.95L410.87,265.84L411.6,260.07L413.78,242.35L414.5,277.28L415.23,274.35L415.96,239.31L416.68,210.4L417.41,239.46L418.13,233.45L418.86,255.15L419.58,270.16L420.31,227.74L421.76,251.53L422.49,242.12L423.21,218.28L423.94,242.22L425.39,265.8L426.12,258.34L426.84,223.19L427.57,248.92L428.29,240.25L429.02,254.4L429.75,234.46L430.47,248.47L431.2,257.27L431.92,227.48L432.65,265.29L433.38,236.6L435.55,269.16L436.28,265.47L437.73,238.07L438.46,259.16L439.18,246.08L439.91,246.24L440.63,265.33L441.36,230.51L442.09,241.2L443.54,260.84L444.26,256.96L444.99,248.23L445.72,273.76L446.44,258.24L447.17,269.93L448.62,242.33L449.34,252.13L450.07,260.73L450.8,259.69L451.52,233.77L452.25,262.64L453.7,245.87L454.43,265.14L455.15,271.78L455.88,261.68L456.6,263.59L457.33,226.71L458.78,264.35L459.51,262.49L460.96,250.55L461.68,251.71L462.41,261.51L463.14,255.46L463.86,275.77L464.59,267.71L465.31,270.78L466.04,281.86L466.77,265.44L467.49,276.77L468.22,279.33L468.94,261.03L469.67,241.06L470.39,250.12L471.12,250.6L471.85,262.43L472.57,285.12L473.3,267.97L474.02,245.41L474.75,282.43L475.48,283.35L476.2,260.67L476.93,262.85L477.65,258.39L478.38,254.15L479.11,264.89L479.83,221.99L480.56,263.8L481.28,258.65L482.01,261.66L482.73,258.47L483.46,264.28L484.19,245.93L484.91,265.15L485.64,261.16L486.36,222.22L487.82,272.83L488.54,263.3L489.27,269.93L489.99,255.89L490.72,279.65L491.44,270.71L492.17,275.6L492.9,256.05L493.62,263.89L494.35,258.28L495.8,274.27L496.53,267.4L497.25,284.63L497.98,256.81L498.7,259.94L499.43,275.65L500.16,257.51L500.88,262.56L501.61,270.74L502.33,264.39L503.06,287.72L503.78,271.63L504.51,275.77L505.24,273.99L505.96,265.69L506.69,243.72L508.14,288.79L508.87,249.38L509.59,282.19L510.32,265.15L511.04,249.68L511.77,261.14L513.22,272.4L513.95,242.07L515.4,260.59L516.12,269.93L516.85,255.76L517.58,287.55L519.03,247.62L519.75,269.51L520.48,277.2L521.21,273.54L521.93,274.31L522.66,290.31L523.38,253.97L524.11,283.6L524.83,276.14L525.56,285.15L526.29,274.47L527.01,276.72L527.74,275.31L528.46,279.95L529.92,283.04L530.64,283.7L531.37,232.18L532.09,285.1L532.82,269L533.54,277.52L534.27,289.68L535,256.26L535.72,283.18L536.45,276.93L537.17,274.01L537.9,261.5L538.63,272L539.35,263.35L540.8,283.62L541.53,283.58L542.26,272.48L542.98,278.33L543.71,278.44L544.43,276.21L545.16,259.16L545.88,286.6L546.61,277.36L547.34,284.36L548.06,285.96L548.79,249.26L550.24,281.02L550.97,268.22L551.69,284.35L552.42,281.5L553.14,249.59L553.87,300.89L554.59,281.71L555.32,295.78L556.77,275.87L557.5,265.95L558.95,274.45L559.68,291.58L560.4,296.5L561.13,287.19L562.58,278.47L563.31,253.9L564.76,275.16L565.48,275.11L566.21,251.61L566.93,269.6L567.66,280.46L568.39,273.21L569.11,272.6L569.84,261.79L570.56,278.92L571.29,268.02L572.74,285.18L573.47,285.62L574.19,285.2L574.92,270.3L575.64,276.43L576.37,263.12L577.1,292.96L577.82,276.92L578.55,250.62L579.27,290.33L580,267.9" style="vector-effect: non-scaling-stroke; fill: none; stroke: rgb(31, 119, 180); stroke-opacity: 1; stroke-width: 2px; opacity: 1;"/></g><g class="points"/><g class="text"/></g></g></g><g class="overplot"/><path class="xlines-above crisp" d="M0,0" style="fill: none;"/><path class="ylines-above crisp" d="M0,0" style="fill: none;"/><g class="overlines-above"/><g class="xaxislayer-above"><g class="xtick"><text text-anchor="middle" x="0" y="403" transform="translate(60,0)" style="font-family: 'Open Sans', verdana, arial, sans-serif; font-size: 12px; fill: rgb(68, 68, 68); fill-opacity: 1; white-space: pre;">0</text></g><g class="xtick"><text text-anchor="middle" x="0" y="403" transform="translate(132.59,0)" style="font-family: 'Open Sans', verdana, arial, sans-serif; font-size: 12px; fill: rgb(68, 68, 68); fill-opacity: 1; white-space: pre;">2k</text></g><g class="xtick"><text text-anchor="middle" x="0" y="403" transform="translate(205.17,0)" style="font-family: 'Open Sans', verdana, arial, sans-serif; font-size: 12px; fill: rgb(68, 68, 68); fill-opacity: 1; white-space: pre;">4k</text></g><g class="xtick"><text text-anchor="middle" x="0" y="403" transform="translate(277.76,0)" style="font-family: 'Open Sans', verdana, arial, sans-serif; font-size: 12px; fill: rgb(68, 68, 68); fill-opacity: 1; white-space: pre;">6k</text></g><g class="xtick"><text text-anchor="middle" x="0" y="403" transform="translate(350.34,0)" style="font-family: 'Open Sans', verdana, arial, sans-serif; font-size: 12px; fill: rgb(68, 68, 68); fill-opacity: 1; white-space: pre;">8k</text></g><g class="xtick"><text text-anchor="middle" x="0" y="403" transform="translate(422.93,0)" style="font-family: 'Open Sans', verdana, arial, sans-serif; font-size: 12px; fill: rgb(68, 68, 68); fill-opacity: 1; white-space: pre;">10k</text></g><g class="xtick"><text text-anchor="middle" x="0" y="403" transform="translate(495.52,0)" style="font-family: 'Open Sans', verdana, arial, sans-serif; font-size: 12px; fill: rgb(68, 68, 68); fill-opacity: 1; white-space: pre;">12k</text></g><g class="xtick"><text text-anchor="middle" x="0" y="403" transform="translate(568.1,0)" style="font-family: 'Open Sans', verdana, arial, sans-serif; font-size: 12px; fill: rgb(68, 68, 68); fill-opacity: 1; white-space: pre;">14k</text></g></g><g class="yaxislayer-above"><g class="ytick"><text text-anchor="end" x="59" y="4.199999999999999" transform="translate(0,373.5)" style="font-family: 'Open Sans', verdana, arial, sans-serif; font-size: 12px; fill: rgb(68, 68, 68); fill-opacity: 1; white-space: pre;">0</text></g><g class="ytick"><text text-anchor="end" x="59" y="4.199999999999999" transform="translate(0,306.02)" style="font-family: 'Open Sans', verdana, arial, sans-serif; font-size: 12px; fill: rgb(68, 68, 68); fill-opacity: 1; white-space: pre;">0.5</text></g><g class="ytick"><text text-anchor="end" x="59" y="4.199999999999999" transform="translate(0,238.54)" style="font-family: 'Open Sans', verdana, arial, sans-serif; font-size: 12px; fill: rgb(68, 68, 68); fill-opacity: 1; white-space: pre;">1</text></g><g class="ytick"><text text-anchor="end" x="59" y="4.199999999999999" transform="translate(0,171.06)" style="font-family: 'Open Sans', verdana, arial, sans-serif; font-size: 12px; fill: rgb(68, 68, 68); fill-opacity: 1; white-space: pre;">1.5</text></g><g class="ytick"><text text-anchor="end" x="59" y="4.199999999999999" transform="translate(0,103.58)" style="font-family: 'Open Sans', verdana, arial, sans-serif; font-size: 12px; fill: rgb(68, 68, 68); fill-opacity: 1; white-space: pre;">2</text></g></g><g class="overaxes-above"/></g></g><g class="polarlayer"/><g class="ternarylayer"/><g class="geolayer"/><g class="pielayer"/><g class="glimages"/><defs id="topdefs-4c67f7"><g class="clips"/></defs><g class="layer-above"><g class="imagelayer"/><g class="shapelayer"/></g><g class="infolayer"><g class="g-gtitle"><text class="gtitle" x="350" y="30" text-anchor="middle" style="font-family: 'Open Sans', verdana, arial, sans-serif; font-size: 17px; fill: rgb(68, 68, 68); opacity: 1; font-weight: normal; white-space: pre;">train loss</text></g><g class="g-xtitle"/><g class="g-ytitle"/></g></svg>