<svg class="main-svg" xmlns="http://www.w3.org/2000/svg" xmlns:xlink="http://www.w3.org/1999/xlink" width="700" height="450" style="" viewBox="0 0 700 450"><rect x="0" y="0" width="700" height="450" style="fill: rgb(255, 255, 255); fill-opacity: 1;"/><defs id="defs-577c18"><g class="clips"><clipPath id="clip577c18xyplot" class="plotclip"><rect width="580" height="330"/></clipPath><clipPath class="axesclip" id="clip577c18x"><rect x="60" y="0" width="580" height="450"/></clipPath><clipPath class="axesclip" id="clip577c18y"><rect x="0" y="60" width="700" height="330"/></clipPath><clipPath class="axesclip" id="clip577c18xy"><rect x="60" y="60" width="580" height="330"/></clipPath></g><g class="gradients"/></defs><g class="bglayer"/><g class="layer-below"><g class="imagelayer"/><g class="shapelayer"/></g><g class="cartesianlayer"><g class="subplot xy"><g class="layer-subplot"><g class="shapelayer"/><g class="imagelayer"/></g><g class="gridlayer"><g class="x"><path class="xgrid crisp" d="M0,60v330" transform="translate(132.12,0)" style="stroke: rgb(238, 238, 238); stroke-opacity: 1; stroke-width: 1px;"/><path class="xgrid crisp" d="M0,60v330" transform="translate(204.24,0)" style="stroke: rgb(238, 238, 238); stroke-opacity: 1; stroke-width: 1px;"/><path class="xgrid crisp" d="M0,60v330" transform="translate(276.36,0)" style="stroke: rgb(238, 238, 238); stroke-opacity: 1; stroke-width: 1px;"/><path class="xgrid crisp" d="M0,60v330" transform="translate(348.49,0)" style="stroke: rgb(238, 238, 238); stroke-opacity: 1; stroke-width: 1px;"/><path class="xgrid crisp" d="M0,60v330" transform="translate(420.61,0)" style="stroke: rgb(238, 238, 238); stroke-opacity: 1; stroke-width: 1px;"/><path class="xgrid crisp" d="M0,60v330" transform="translate(492.73,0)" style="stroke: rgb(238, 238, 238); stroke-opacity: 1; stroke-width: 1px;"/><path class="xgrid crisp" d="M0,60v330" transform="translate(564.85,0)" style="stroke: rgb(238, 238, 238); stroke-opacity: 1; stroke-width: 1px;"/><path class="xgrid crisp" d="M0,60v330" transform="translate(636.97,0)" style="stroke: rgb(238, 238, 238); stroke-opacity: 1; stroke-width: 1px;"/></g><g class="y"><path class="ygrid crisp" d="M60,0h580" transform="translate(0,328.35)" style="stroke: rgb(238, 238, 238); stroke-opacity: 1; stroke-width: 1px;"/><path class="ygrid crisp" d="M60,0h580" transform="translate(0,283.21000000000004)" style="stroke: rgb(238, 238, 238); stroke-opacity: 1; stroke-width: 1px;"/><path class="ygrid crisp" d="M60,0h580" transform="translate(0,238.06)" style="stroke: rgb(238, 238, 238); stroke-opacity: 1; stroke-width: 1px;"/><path class="ygrid crisp" d="M60,0h580" transform="translate(0,192.92)" style="stroke: rgb(238, 238, 238); stroke-opacity: 1; stroke-width: 1px;"/><path class="ygrid crisp" d="M60,0h580" transform="translate(0,147.76999999999998)" style="stroke: rgb(238, 238, 238); stroke-opacity: 1; stroke-width: 1px;"/><path class="ygrid crisp" d="M60,0h580" transform="translate(0,102.62)" style="stroke: rgb(238, 238, 238); stroke-opacity: 1; stroke-width: 1px;"/></g></g><g class="zerolinelayer"><path class="xzl zl crisp" d="M0,60v330" transform="translate(60,0)" style="stroke: rgb(68, 68, 68); stroke-opacity: 1; stroke-width: 1px;"/><path class="yzl zl crisp" d="M60,0h580" transform="translate(0,373.5)" style="stroke: rgb(68, 68, 68); stroke-opacity: 1; stroke-width: 1px;"/></g><path class="xlines-below"/><path class="ylines-below"/><g class="overlines-below"/><g class="xaxislayer-below"/><g class="yaxislayer-below"/><g class="overaxes-below"/><g class="plot" transform="translate(60, 60)" clip-path="url(#clip577c18xyplot)"><g class="scatterlayer mlayer"><g class="trace scatter trace61ce9e" style="stroke-miterlimit: 2; opacity: 1;"><g class="fills"/><g class="errorbars"/><g class="lines"><path class="js-line" d="M0,313.5L0.14,16.5L3.03,33.52L5.91,74.65L8.8,54.61L14.57,117.83L17.45,50.89L20.34,72.61L23.22,77.4L26.11,69.89L28.99,78.69L31.88,86.11L34.76,79.35L37.65,52.08L40.53,63.97L43.42,84.08L46.3,89.85L49.19,81.55L52.07,80.35L54.96,111.92L57.84,110.74L60.73,94.29L63.61,101.23L66.5,98.9L69.38,84.1L72.27,97.84L75.15,76.45L78.04,100.52L80.92,133.22L83.81,104.69L86.69,114.06L89.57,130.51L92.46,98.69L95.34,104.19L98.23,136.81L101.11,103.78L104,116.29L106.88,127.72L109.77,169.11L112.65,115.67L115.54,155.09L121.31,44.58L124.19,140.34L127.08,157.79L129.96,151.15L132.85,117.63L135.73,144.46L138.62,200.59L141.5,145.88L144.39,167.55L147.27,163.85L150.16,167.12L153.04,138.35L155.93,166.79L158.81,58.62L161.7,189.32L164.58,152.5L173.24,172.02L176.12,161.01L179.01,194.9L181.89,185.17L184.77,181.85L187.66,180.54L190.54,165.93L193.43,170.24L196.31,179.3L199.2,176.42L202.08,209.66L204.97,181.48L207.85,174.01L210.74,227.35L213.62,210.19L216.51,198.54L219.39,184.48L222.28,158.03L225.16,200.88L228.05,216.91L230.93,150.76L233.82,180L236.7,217.49L239.59,190.29L242.47,177.87L245.36,205.17L248.24,203.16L251.13,204.74L254.01,181.31L256.9,212.79L259.78,199.05L262.67,193.16L265.55,184.77L268.44,181.58L271.32,197.03L274.21,161.07L277.09,231.83L279.98,196.29L282.86,172.41L285.74,220.42L288.63,190.76L291.51,190.74L294.4,218.46L297.28,184.69L300.17,202.74L303.05,199.38L305.94,186.57L308.82,185.97L311.71,181.92L314.59,220.47L317.48,211.47L320.36,186.07L323.25,206.01L326.13,173.71L329.02,221.03L331.9,220.92L334.79,176.67L337.67,181.66L343.44,216.09L346.33,204.89L349.21,193.67L352.1,218.87L354.98,203.04L357.87,180.84L360.75,189.71L363.64,217.31L366.52,195.47L369.41,191.3L372.29,194.96L375.18,170.34L378.06,241.49L380.95,192.07L383.83,187.39L386.71,215.87L389.6,188.34L392.48,222.4L395.37,200.46L398.25,200.07L401.14,203.32L404.02,221.56L406.91,182.02L409.79,215.4L412.68,200.2L415.56,190.63L418.45,217.24L421.33,227.65L424.22,231.93L427.1,226.78L429.99,203.64L432.87,215.73L435.76,203.78L438.64,197.13L441.53,221.89L444.41,188.17L447.3,225.56L450.18,230.81L455.95,204.08L458.84,194.36L461.72,233.45L464.61,233.15L467.49,218.96L470.38,187.39L473.26,198.85L476.15,226.41L479.03,201.71L481.91,198.94L484.8,201.6L487.68,220.92L490.57,205.51L493.45,216.84L499.22,225.77L502.11,211.73L504.99,194.34L507.88,164.78L510.76,206.28L513.65,186.76L516.53,201.05L519.42,173.97L522.3,205.45L525.19,188L528.07,149.51L530.96,224.34L533.84,205.51L536.73,238.82L539.61,216.76L542.5,225.21L545.38,186.34L548.27,228.58L551.15,214.64L554.04,228.75L559.81,219.37L562.69,234.75L565.58,245.18L568.46,212.34L571.35,214.09L574.23,191.43L577.12,233.47L580,161.23" style="vector-effect: non-scaling-stroke; fill: none; stroke: rgb(31, 119, 180); stroke-opacity: 1; stroke-width: 2px; opacity: 1;"/></g><g class="points"/><g class="text"/></g></g></g><g class="overplot"/><path class="xlines-above crisp" d="M0,0" style="fill: none;"/><path class="ylines-above crisp" d="M0,0" style="fill: none;"/><g class="overlines-above"/><g class="xaxislayer-above"><g class="xtick"><text text-anchor="middle" x="0" y="403" transform="translate(60,0)" style="font-family: 'Open Sans', verdana, arial, sans-serif; font-size: 12px; fill: rgb(68, 68, 68); fill-opacity: 1; white-space: pre;">0</text></g><g class="xtick"><text text-anchor="middle" x="0" y="403" transform="translate(132.12,0)" style="font-family: 'Open Sans', verdana, arial, sans-serif; font-size: 12px; fill: rgb(68, 68, 68); fill-opacity: 1; white-space: pre;">500</text></g><g class="xtick"><text text-anchor="middle" x="0" y="403" transform="translate(204.24,0)" style="font-family: 'Open Sans', verdana, arial, sans-serif; font-size: 12px; fill: rgb(68, 68, 68); fill-opacity: 1; white-space: pre;">1000</text></g><g class="xtick"><text text-anchor="middle" x="0" y="403" transform="translate(276.36,0)" style="font-family: 'Open Sans', verdana, arial, sans-serif; font-size: 12px; fill: rgb(68, 68, 68); fill-opacity: 1; white-space: pre;">1500</text></g><g class="xtick"><text text-anchor="middle" x="0" y="403" transform="translate(348.49,0)" style="font-family: 'Open Sans', verdana, arial, sans-serif; font-size: 12px; fill: rgb(68, 68, 68); fill-opacity: 1; white-space: pre;">2000</text></g><g class="xtick"><text text-anchor="middle" x="0" y="403" transform="translate(420.61,0)" style="font-family: 'Open Sans', verdana, arial, sans-serif; font-size: 12px; fill: rgb(68, 68, 68); fill-opacity: 1; white-space: pre;">2500</text></g><g class="xtick"><text text-anchor="middle" x="0" y="403" transform="translate(492.73,0)" style="font-family: 'Open Sans', verdana, arial, sans-serif; font-size: 12px; fill: rgb(68, 68, 68); fill-opacity: 1; white-space: pre;">3000</text></g><g class="xtick"><text text-anchor="middle" x="0" y="403" transform="translate(564.85,0)" style="font-family: 'Open Sans', verdana, arial, sans-serif; font-size: 12px; fill: rgb(68, 68, 68); fill-opacity: 1; white-space: pre;">3500</text></g><g class="xtick"><text text-anchor="middle" x="0" y="403" transform="translate(636.97,0)" style="font-family: 'Open Sans', verdana, arial, sans-serif; font-size: 12px; fill: rgb(68, 68, 68); fill-opacity: 1; white-space: pre;">4000</text></g></g><g class="yaxislayer-above"><g class="ytick"><text text-anchor="end" x="59" y="4.199999999999999" transform="translate(0,373.5)" style="font-family: 'Open Sans', verdana, arial, sans-serif; font-size: 12px; fill: rgb(68, 68, 68); fill-opacity: 1; white-space: pre;">0</text></g><g class="ytick"><text text-anchor="end" x="59" y="4.199999999999999" transform="translate(0,328.35)" style="font-family: 'Open Sans', verdana, arial, sans-serif; font-size: 12px; fill: rgb(68, 68, 68); fill-opacity: 1; white-space: pre;">0.2</text></g><g class="ytick"><text text-anchor="end" x="59" y="4.199999999999999" transform="translate(0,283.21000000000004)" style="font-family: 'Open Sans', verdana, arial, sans-serif; font-size: 12px; fill: rgb(68, 68, 68); fill-opacity: 1; white-space: pre;">0.4</text></g><g class="ytick"><text text-anchor="end" x="59" y="4.199999999999999" transform="translate(0,238.06)" style="font-family: 'Open Sans', verdana, arial, sans-serif; font-size: 12px; fill: rgb(68, 68, 68); fill-opacity: 1; white-space: pre;">0.6</text></g><g class="ytick"><text text-anchor="end" x="59" y="4.199999999999999" transform="translate(0,192.92)" style="font-family: 'Open Sans', verdana, arial, sans-serif; font-size: 12px; fill: rgb(68, 68, 68); fill-opacity: 1; white-space: pre;">0.8</text></g><g class="ytick"><text text-anchor="end" x="59" y="4.199999999999999" transform="translate(0,147.76999999999998)" style="font-family: 'Open Sans', verdana, arial, sans-serif; font-size: 12px; fill: rgb(68, 68, 68); fill-opacity: 1; white-space: pre;">1</text></g><g class="ytick"><text text-anchor="end" x="59" y="4.199999999999999" transform="translate(0,102.62)" style="font-family: 'Open Sans', verdana, arial, sans-serif; font-size: 12px; fill: rgb(68, 68, 68); fill-opacity: 1; white-space: pre;">1.2</text></g></g><g class="overaxes-above"/></g></g><g class="polarlayer"/><g class="ternarylayer"/><g class="geolayer"/><g class="pielayer"/><g class="glimages"/><defs id="topdefs-577c18"><g class="clips"/></defs><g class="layer-above"><g class="imagelayer"/><g class="shapelayer"/></g><g class="infolayer"><g class="g-gtitle"><text class="gtitle" x="350" y="30" text-anchor="middle" style="font-family: 'Open Sans', verdana, arial, sans-serif; font-size: 17px; fill: rgb(68, 68, 68); opacity: 1; font-weight: normal; white-space: pre;">train loss</text></g><g class="g-xtitle"/><g class="g-ytitle"/></g></svg>