<svg class="main-svg" xmlns="http://www.w3.org/2000/svg" xmlns:xlink="http://www.w3.org/1999/xlink" width="700" height="450" style="" viewBox="0 0 700 450"><rect x="0" y="0" width="700" height="450" style="fill: rgb(255, 255, 255); fill-opacity: 1;"/><defs id="defs-ee9855"><g class="clips"><clipPath id="clipee9855xyplot" class="plotclip"><rect width="580" height="330"/></clipPath><clipPath class="axesclip" id="clipee9855x"><rect x="60" y="0" width="580" height="450"/></clipPath><clipPath class="axesclip" id="clipee9855y"><rect x="0" y="60" width="700" height="330"/></clipPath><clipPath class="axesclip" id="clipee9855xy"><rect x="60" y="60" width="580" height="330"/></clipPath></g><g class="gradients"/></defs><g class="bglayer"/><g class="layer-below"><g class="imagelayer"/><g class="shapelayer"/></g><g class="cartesianlayer"><g class="subplot xy"><g class="layer-subplot"><g class="shapelayer"/><g class="imagelayer"/></g><g class="gridlayer"><g class="x"><path class="xgrid crisp" d="M0,60v330" transform="translate(149.76999999999998,0)" style="stroke: rgb(238, 238, 238); stroke-opacity: 1; stroke-width: 1px;"/><path class="xgrid crisp" d="M0,60v330" transform="translate(239.54,0)" style="stroke: rgb(238, 238, 238); stroke-opacity: 1; stroke-width: 1px;"/><path class="xgrid crisp" d="M0,60v330" transform="translate(329.31,0)" style="stroke: rgb(238, 238, 238); stroke-opacity: 1; stroke-width: 1px;"/><path class="xgrid crisp" d="M0,60v330" transform="translate(419.08,0)" style="stroke: rgb(238, 238, 238); stroke-opacity: 1; stroke-width: 1px;"/><path class="xgrid crisp" d="M0,60v330" transform="translate(508.85,0)" style="stroke: rgb(238, 238, 238); stroke-opacity: 1; stroke-width: 1px;"/><path class="xgrid crisp" d="M0,60v330" transform="translate(598.62,0)" style="stroke: rgb(238, 238, 238); stroke-opacity: 1; stroke-width: 1px;"/></g><g class="y"><path class="ygrid crisp" d="M60,0h580" transform="translate(0,297.63)" style="stroke: rgb(238, 238, 238); stroke-opacity: 1; stroke-width: 1px;"/><path class="ygrid crisp" d="M60,0h580" transform="translate(0,221.76)" style="stroke: rgb(238, 238, 238); stroke-opacity: 1; stroke-width: 1px;"/><path class="ygrid crisp" d="M60,0h580" transform="translate(0,145.89)" style="stroke: rgb(238, 238, 238); stroke-opacity: 1; stroke-width: 1px;"/><path class="ygrid crisp" d="M60,0h580" transform="translate(0,70.02)" style="stroke: rgb(238, 238, 238); stroke-opacity: 1; stroke-width: 1px;"/></g></g><g class="zerolinelayer"><path class="xzl zl crisp" d="M0,60v330" transform="translate(60,0)" style="stroke: rgb(68, 68, 68); stroke-opacity: 1; stroke-width: 1px;"/><path class="yzl zl crisp" d="M60,0h580" transform="translate(0,373.5)" style="stroke: rgb(68, 68, 68); stroke-opacity: 1; stroke-width: 1px;"/></g><path class="xlines-below"/><path class="ylines-below"/><g class="overlines-below"/><g class="xaxislayer-below"/><g class="yaxislayer-below"/><g class="overaxes-below"/><g class="plot" transform="translate(60, 60)" clip-path="url(#clipee9855xyplot)"><g class="scatterlayer mlayer"><g class="trace scatter trace4750b8" style="stroke-miterlimit: 2; opacity: 1;"><g class="fills"/><g class="errorbars"/><g class="lines"><path class="js-line" d="M0,313.5L0.09,16.5L1.89,158.68L3.68,163.21L5.48,165.02L7.27,156.05L9.07,158.71L10.86,160.93L12.66,166.51L14.45,205.89L16.25,184.6L18.04,165.53L19.84,199.54L21.63,158.96L23.43,196.8L25.23,176.96L27.02,185.63L28.82,199.76L30.61,171.28L32.41,180.22L34.2,177.73L36,196.07L37.79,202.28L39.59,184.45L41.38,218.68L43.18,188.4L44.97,202.74L46.77,199.3L48.57,213.21L50.36,185.68L52.16,204.02L53.95,204.21L55.75,221.03L57.54,232.94L59.34,193.69L61.13,220.58L62.93,197.83L66.52,208.47L68.31,186.98L70.11,206.43L71.91,207.33L73.7,195.04L75.5,231.3L77.29,204.36L79.09,219.57L82.68,198.98L84.47,230.76L86.27,196.18L88.06,199.75L89.86,212.28L91.65,196.07L93.45,198.02L95.25,235.58L97.04,245.94L98.84,215.33L100.63,209.72L102.43,210.77L104.22,235.77L106.02,201.46L107.81,206.89L109.61,227.18L111.4,210.54L113.2,210.53L114.99,188.73L116.79,221.32L118.59,211.94L120.38,184.62L123.97,237.72L125.77,204.41L127.56,231.91L129.36,198.43L131.15,214.66L132.95,216.36L134.74,244.07L136.54,227.28L138.33,196.82L140.13,210.14L141.93,233.83L143.72,234.68L145.52,210.98L147.31,223.49L149.11,221.55L150.9,236.75L152.7,217.4L154.49,209.02L156.29,234.8L158.08,241.22L159.88,195.87L161.67,228.03L163.47,219.46L165.27,189.14L167.06,168.01L168.86,233.04L170.65,245.05L172.45,247.59L174.24,218.19L176.04,211.68L177.83,225.85L179.63,217.1L181.42,240.94L183.22,227.91L185.01,234.95L186.81,198.31L188.61,231.42L190.4,227.94L192.2,213.02L193.99,225.86L195.79,228.15L197.58,222.67L199.38,240.02L201.17,228.81L202.97,224.34L204.76,228.86L206.56,218.42L208.35,247.21L210.15,237.78L211.95,233.57L213.74,258.6L215.54,221.72L217.33,237.17L219.13,225.09L220.92,245.93L222.72,248.3L224.51,221.98L226.31,220.63L228.1,218.57L229.9,224.11L231.69,233.73L233.49,211.67L235.29,245.23L237.08,217.44L238.88,203.29L240.67,231.69L242.47,229.63L244.26,236.44L246.06,223.64L247.85,227.04L249.65,206.88L251.44,233.37L253.24,241.61L255.03,230.46L256.83,212.59L258.63,176.47L260.42,233.61L262.22,217.08L264.01,219.01L265.81,241.36L267.6,243.81L269.4,218.64L271.19,247.65L272.99,253.33L274.78,246.03L276.58,211.81L278.37,213.63L280.17,256.97L283.76,235L285.56,223.73L287.35,221.51L289.15,201.56L290.94,226.8L292.74,236.75L294.53,225.11L296.33,238.36L298.12,215.56L299.92,234.03L301.71,230.27L303.51,210.15L305.31,236.69L307.1,233.62L308.9,211.47L310.69,216.61L312.49,242.66L314.28,215.7L317.87,258.79L319.67,226.1L321.46,226.47L323.26,260.28L326.85,225.82L328.65,251.99L330.44,224.71L332.24,228.95L334.03,222.95L335.83,237.68L337.62,237.06L339.42,252.92L341.21,230.46L343.01,230.22L344.8,239.1L346.6,234.93L348.39,218.7L350.19,244.78L353.78,219.47L355.58,214.14L357.37,222.12L359.17,207.78L360.96,230.68L362.76,240.68L364.55,238.97L366.35,232.92L368.14,152.76L369.94,214.21L371.74,214.96L373.53,244.21L375.33,247.82L377.12,217.12L378.92,223.45L380.71,226.34L382.51,227.65L384.3,247.6L386.1,242.46L387.89,234.54L391.48,251.39L393.28,220.14L395.08,256.61L396.87,218.34L398.67,230.55L400.46,222.86L404.05,260.96L405.85,257.67L407.64,245.47L409.44,244.15L411.23,247.23L413.03,228.29L414.82,243.62L416.62,238.57L418.42,215.54L420.21,242.85L422.01,235.81L423.8,232.99L425.6,236.64L427.39,231.76L429.19,222.87L430.98,242.27L434.57,253.6L436.37,242.84L438.16,197.72L439.96,260.72L441.76,248.8L443.55,249.37L445.35,254.54L447.14,228.37L448.94,260.65L450.73,242.45L452.53,235.52L454.32,233.91L456.12,238.54L457.91,253.22L459.71,218.4L461.5,208.26L463.3,253.76L465.1,250.04L466.89,257.08L468.69,256.47L470.48,232.04L472.28,241.77L475.87,202.89L477.66,238.99L479.46,240.25L481.25,210.68L483.05,241.94L484.84,254.74L486.64,254.69L488.44,247.37L490.23,223.35L492.03,252.04L493.82,234.68L495.62,239.19L497.41,236.26L499.21,229.13L501,245.43L502.8,218.71L504.59,211.27L506.39,234.34L508.18,258.58L509.98,250.53L511.78,217.59L513.57,266.76L515.37,256.86L517.16,241.23L518.96,245.26L520.75,228.96L522.55,248.14L524.34,253.29L526.14,250.94L527.93,254.95L529.73,242.58L531.52,222.36L533.32,209.53L535.12,236.93L536.91,252.74L538.71,219.63L540.5,256.02L542.3,251.51L545.89,265.68L547.68,250.58L549.48,236.49L551.27,229.3L553.07,249.13L554.86,240.86L556.66,239.77L558.46,247.34L560.25,231.95L562.05,251.91L565.64,224.64L567.43,241.28L569.23,244L571.02,231.96L572.82,242.07L574.61,264.36L576.41,255.83L578.2,257.47L580,233.64" style="vector-effect: non-scaling-stroke; fill: none; stroke: rgb(31, 119, 180); stroke-opacity: 1; stroke-width: 2px; opacity: 1;"/></g><g class="points"/><g class="text"/></g></g></g><g class="overplot"/><path class="xlines-above crisp" d="M0,0" style="fill: none;"/><path class="ylines-above crisp" d="M0,0" style="fill: none;"/><g class="overlines-above"/><g class="xaxislayer-above"><g class="xtick"><text text-anchor="middle" x="0" y="403" transform="translate(60,0)" style="font-family: 'Open Sans', verdana, arial, sans-serif; font-size: 12px; fill: rgb(68, 68, 68); fill-opacity: 1; white-space: pre;">0</text></g><g class="xtick"><text text-anchor="middle" x="0" y="403" transform="translate(149.76999999999998,0)" style="font-family: 'Open Sans', verdana, arial, sans-serif; font-size: 12px; fill: rgb(68, 68, 68); fill-opacity: 1; white-space: pre;">1000</text></g><g class="xtick"><text text-anchor="middle" x="0" y="403" transform="translate(239.54,0)" style="font-family: 'Open Sans', verdana, arial, sans-serif; font-size: 12px; fill: rgb(68, 68, 68); fill-opacity: 1; white-space: pre;">2000</text></g><g class="xtick"><text text-anchor="middle" x="0" y="403" transform="translate(329.31,0)" style="font-family: 'Open Sans', verdana, arial, sans-serif; font-size: 12px; fill: rgb(68, 68, 68); fill-opacity: 1; white-space: pre;">3000</text></g><g class="xtick"><text text-anchor="middle" x="0" y="403" transform="translate(419.08,0)" style="font-family: 'Open Sans', verdana, arial, sans-serif; font-size: 12px; fill: rgb(68, 68, 68); fill-opacity: 1; white-space: pre;">4000</text></g><g class="xtick"><text text-anchor="middle" x="0" y="403" transform="translate(508.85,0)" style="font-family: 'Open Sans', verdana, arial, sans-serif; font-size: 12px; fill: rgb(68, 68, 68); fill-opacity: 1; white-space: pre;">5000</text></g><g class="xtick"><text text-anchor="middle" x="0" y="403" transform="translate(598.62,0)" style="font-family: 'Open Sans', verdana, arial, sans-serif; font-size: 12px; fill: rgb(68, 68, 68); fill-opacity: 1; white-space: pre;">6000</text></g></g><g class="yaxislayer-above"><g class="ytick"><text text-anchor="end" x="59" y="4.199999999999999" transform="translate(0,373.5)" style="font-family: 'Open Sans', verdana, arial, sans-serif; font-size: 12px; fill: rgb(68, 68, 68); fill-opacity: 1; white-space: pre;">0</text></g><g class="ytick"><text text-anchor="end" x="59" y="4.199999999999999" transform="translate(0,297.63)" style="font-family: 'Open Sans', verdana, arial, sans-serif; font-size: 12px; fill: rgb(68, 68, 68); fill-opacity: 1; white-space: pre;">0.5</text></g><g class="ytick"><text text-anchor="end" x="59" y="4.199999999999999" transform="translate(0,221.76)" style="font-family: 'Open Sans', verdana, arial, sans-serif; font-size: 12px; fill: rgb(68, 68, 68); fill-opacity: 1; white-space: pre;">1</text></g><g class="ytick"><text text-anchor="end" x="59" y="4.199999999999999" transform="translate(0,145.89)" style="font-family: 'Open Sans', verdana, arial, sans-serif; font-size: 12px; fill: rgb(68, 68, 68); fill-opacity: 1; white-space: pre;">1.5</text></g><g class="ytick"><text text-anchor="end" x="59" y="4.199999999999999" transform="translate(0,70.02)" style="font-family: 'Open Sans', verdana, arial, sans-serif; font-size: 12px; fill: rgb(68, 68, 68); fill-opacity: 1; white-space: pre;">2</text></g></g><g class="overaxes-above"/></g></g><g class="polarlayer"/><g class="ternarylayer"/><g class="geolayer"/><g class="pielayer"/><g class="glimages"/><defs id="topdefs-ee9855"><g class="clips"/></defs><g class="layer-above"><g class="imagelayer"/><g class="shapelayer"/></g><g class="infolayer"><g class="g-gtitle"><text class="gtitle" x="350" y="30" text-anchor="middle" style="font-family: 'Open Sans', verdana, arial, sans-serif; font-size: 17px; fill: rgb(68, 68, 68); opacity: 1; font-weight: normal; white-space: pre;">train loss</text></g><g class="g-xtitle"/><g class="g-ytitle"/></g></svg>