<svg class="main-svg" xmlns="http://www.w3.org/2000/svg" xmlns:xlink="http://www.w3.org/1999/xlink" width="700" height="450" style="" viewBox="0 0 700 450"><rect x="0" y="0" width="700" height="450" style="fill: rgb(255, 255, 255); fill-opacity: 1;"/><defs id="defs-db6006"><g class="clips"><clipPath id="clipdb6006xyplot" class="plotclip"><rect width="580" height="330"/></clipPath><clipPath class="axesclip" id="clipdb6006x"><rect x="60" y="0" width="580" height="450"/></clipPath><clipPath class="axesclip" id="clipdb6006y"><rect x="0" y="60" width="700" height="330"/></clipPath><clipPath class="axesclip" id="clipdb6006xy"><rect x="60" y="60" width="580" height="330"/></clipPath></g><g class="gradients"/></defs><g class="bglayer"/><g class="layer-below"><g class="imagelayer"/><g class="shapelayer"/></g><g class="cartesianlayer"><g class="subplot xy"><g class="layer-subplot"><g class="shapelayer"/><g class="imagelayer"/></g><g class="gridlayer"><g class="x"><path class="xgrid crisp" d="M0,60v330" transform="translate(144.49,0)" style="stroke: rgb(238, 238, 238); stroke-opacity: 1; stroke-width: 1px;"/><path class="xgrid crisp" d="M0,60v330" transform="translate(228.98,0)" style="stroke: rgb(238, 238, 238); stroke-opacity: 1; stroke-width: 1px;"/><path class="xgrid crisp" d="M0,60v330" transform="translate(313.47,0)" style="stroke: rgb(238, 238, 238); stroke-opacity: 1; stroke-width: 1px;"/><path class="xgrid crisp" d="M0,60v330" transform="translate(397.96,0)" style="stroke: rgb(238, 238, 238); stroke-opacity: 1; stroke-width: 1px;"/><path class="xgrid crisp" d="M0,60v330" transform="translate(482.44,0)" style="stroke: rgb(238, 238, 238); stroke-opacity: 1; stroke-width: 1px;"/><path class="xgrid crisp" d="M0,60v330" transform="translate(566.9300000000001,0)" style="stroke: rgb(238, 238, 238); stroke-opacity: 1; stroke-width: 1px;"/></g><g class="y"><path class="ygrid crisp" d="M60,0h580" transform="translate(0,335.96)" style="stroke: rgb(238, 238, 238); stroke-opacity: 1; stroke-width: 1px;"/><path class="ygrid crisp" d="M60,0h580" transform="translate(0,298.40999999999997)" style="stroke: rgb(238, 238, 238); stroke-opacity: 1; stroke-width: 1px;"/><path class="ygrid crisp" d="M60,0h580" transform="translate(0,260.87)" style="stroke: rgb(238, 238, 238); stroke-opacity: 1; stroke-width: 1px;"/><path class="ygrid crisp" d="M60,0h580" transform="translate(0,223.33)" style="stroke: rgb(238, 238, 238); stroke-opacity: 1; stroke-width: 1px;"/><path class="ygrid crisp" d="M60,0h580" transform="translate(0,185.79000000000002)" style="stroke: rgb(238, 238, 238); stroke-opacity: 1; stroke-width: 1px;"/><path class="ygrid crisp" d="M60,0h580" transform="translate(0,148.24)" style="stroke: rgb(238, 238, 238); stroke-opacity: 1; stroke-width: 1px;"/><path class="ygrid crisp" d="M60,0h580" transform="translate(0,110.7)" style="stroke: rgb(238, 238, 238); stroke-opacity: 1; stroke-width: 1px;"/><path class="ygrid crisp" d="M60,0h580" transform="translate(0,73.16)" style="stroke: rgb(238, 238, 238); stroke-opacity: 1; stroke-width: 1px;"/></g></g><g class="zerolinelayer"><path class="xzl zl crisp" d="M0,60v330" transform="translate(60,0)" style="stroke: rgb(68, 68, 68); stroke-opacity: 1; stroke-width: 1px;"/><path class="yzl zl crisp" d="M60,0h580" transform="translate(0,373.5)" style="stroke: rgb(68, 68, 68); stroke-opacity: 1; stroke-width: 1px;"/></g><path class="xlines-below"/><path class="ylines-below"/><g class="overlines-below"/><g class="xaxislayer-below"/><g class="yaxislayer-below"/><g class="overaxes-below"/><g class="plot" transform="translate(60, 60)" clip-path="url(#clipdb6006xyplot)"><g class="scatterlayer mlayer"><g class="trace scatter traceeb4eb5" style="stroke-miterlimit: 2; opacity: 1;"><g class="fills"/><g class="errorbars"/><g class="lines"><path class="js-line" d="M0,313.5L0.02,53.45L1.71,64.83L3.4,16.5L5.09,184.57L6.78,151.73L8.47,189.03L10.16,141.06L11.85,145.26L13.54,225.95L15.22,245.61L16.91,187.63L18.6,218.69L20.29,276.73L21.98,213.37L23.67,201.62L25.36,132.5L26.43,249.34L28.12,206.01L29.81,211.96L31.5,243.63L33.19,216.67L34.88,148.98L36.57,222.07L38.26,242.65L39.95,236.96L41.64,188.36L43.33,270.4L45.02,282.49L46.71,262.85L48.4,177.15L50.09,287.14L51.77,240.39L52.84,196.97L54.53,202.94L56.22,228.44L57.91,206.97L59.6,252.1L61.29,215.88L62.98,199.33L64.67,281.99L66.36,271.22L68.05,209.15L69.74,218.61L71.43,153.26L73.12,210.05L74.81,236.12L76.5,195.3L78.19,280.87L79.25,280.28L80.94,272.7L82.63,224.91L84.32,254.31L87.7,187.87L89.39,269.5L91.08,285.25L92.77,260.62L94.46,288.63L96.15,232.24L97.84,232.27L99.53,205.45L101.22,261.46L102.91,224.23L104.6,227.72L105.66,254.83L107.35,230.11L109.04,272.36L110.73,210.78L112.42,232.18L114.11,268.39L115.8,195.73L117.49,270.86L119.18,287.92L120.87,221.38L122.56,250.82L124.25,238.39L125.94,234.17L127.63,277.93L129.32,273.2L131.01,236.91L132.07,278.62L133.76,308.05L135.45,282.59L137.14,218.54L138.83,251.31L140.52,273.15L142.21,253.91L143.9,176.08L145.59,284.19L147.28,159.6L148.97,265.48L150.66,292.39L152.35,254.35L154.04,263.97L155.73,283.01L158.48,208.61L160.17,273.69L161.86,228.69L163.55,274.01L165.24,269.14L166.93,197.53L168.62,265.52L170.31,294.97L172,188.21L173.69,247.4L175.38,296.13L177.07,288.5L178.76,286.23L180.45,254.15L182.14,294.79L183.83,270.94L184.9,273.52L186.59,264.61L188.28,300.53L189.97,281.18L191.65,216.55L193.34,254.77L196.72,291.16L198.41,272.67L200.1,199.08L201.79,206L203.48,226.38L205.17,234.66L206.86,293.37L208.55,255.56L210.24,267.46L211.31,243.59L213,263.56L214.69,263.75L216.38,246.09L218.07,210.24L219.76,217.52L221.45,300.13L223.14,267.29L224.83,262.37L226.51,261.35L228.2,274.09L229.89,298.6L231.58,270.81L233.27,228.63L234.96,233.14L236.65,267.89L237.72,257.27L239.41,294.75L241.1,257.64L242.79,287.41L244.48,295.19L246.17,283.57L247.86,240.07L249.55,262.99L251.24,230.9L252.93,289.52L254.62,288.66L258,192.52L259.69,277.88L261.38,278.08L263.06,266.74L264.13,224.46L265.82,226.57L267.51,192.94L269.2,239.48L270.89,273.31L272.58,270.54L274.27,246.87L275.96,275.91L277.65,250.24L279.34,211.47L281.03,262.94L282.72,256.94L284.41,291.8L286.1,242.99L287.79,266.37L289.48,305.08L290.54,267.64L292.23,289.28L293.92,274.54L295.61,284.3L297.3,267.73L298.99,214.02L300.68,284.36L302.37,302.33L304.06,260.75L305.75,260.57L307.44,279.69L309.13,275.45L310.82,205.45L312.51,301.36L314.2,186.4L315.89,279.53L316.95,299.78L318.64,253.68L320.33,281.62L322.02,261.19L323.71,240.67L325.4,295.53L327.09,286.97L328.78,234.68L330.47,282.85L332.16,258.4L333.85,289.93L335.54,247.52L337.23,276.17L338.92,254.8L340.61,286.86L342.3,276.91L343.36,180.89L345.05,268.73L346.74,244.66L348.43,304.44L350.12,243L351.81,224.15L353.5,282.16L355.19,289.05L356.88,277.3L358.57,235.19L360.26,285.42L361.95,291.68L363.64,276.51L365.33,270.18L367.02,282.27L368.71,257.32L371.46,285.49L373.15,260.19L378.22,303.16L379.91,298.48L381.6,274.88L383.29,274.66L384.98,260.86L386.67,280.86L388.36,270.56L390.05,271.77L391.74,288.55L393.43,273.34L395.12,289.4L396.19,222.06L399.57,269.13L401.26,308.86L402.94,268.14L404.63,306.38L406.32,299.15L408.01,283.84L411.39,294.52L413.08,287.36L416.46,220.35L418.15,217.04L419.84,286.03L421.53,285.96L422.6,287.91L424.29,225.77L425.98,270.93L427.67,206.01L429.36,255.57L431.05,257.57L432.74,277.17L434.43,307.29L437.81,270.2L439.49,244.67L441.18,294.7L442.87,267.48L444.56,308.05L446.25,282.6L447.94,249.66L449.01,248.25L450.7,294.92L452.39,275.99L454.08,277.58L455.77,294.31L457.46,236.1L459.15,297.52L460.84,156.95L462.53,285.89L464.22,249.21L465.91,269.21L467.6,285.72L469.29,288.8L470.98,237.26L472.67,251.77L474.35,285.61L475.42,267.25L477.11,298.62L478.8,250.86L480.49,205.6L482.18,261.58L483.87,297.63L485.56,285.68L487.25,291.02L488.94,274.41L490.63,288.68L492.32,274.48L494.01,246.92L495.7,292.69L497.39,259.98L499.08,251.83L500.77,299.95L501.83,209.39L505.21,276.13L506.9,241.67L508.59,300.19L510.28,279.94L511.97,283.65L513.66,290.06L515.35,221.1L517.04,272.25L520.42,286.26L522.11,257.63L523.8,268.91L525.49,305.15L527.18,265.84L528.24,263.02L529.93,279.17L531.62,264.2L533.31,238.5L535,267.6L536.69,287.88L538.38,251.97L540.07,170.31L541.76,289.05L543.45,234.31L545.14,208.87L546.83,295.08L548.52,274.2L550.21,231.86L551.9,151.57L553.59,289.91L554.65,278.77L556.34,282.62L558.03,206.32L559.72,158.31L561.41,279.11L563.1,249.29L564.79,284.37L566.48,246.24L568.17,282.07L569.86,245.63L571.55,275.78L573.24,218.97L574.93,294.83L576.62,273.26L578.31,286.54L580,260.7" style="vector-effect: non-scaling-stroke; fill: none; stroke: rgb(31, 119, 180); stroke-opacity: 1; stroke-width: 2px; opacity: 1;"/></g><g class="points"/><g class="text"/></g></g></g><g class="overplot"/><path class="xlines-above crisp" d="M0,0" style="fill: none;"/><path class="ylines-above crisp" d="M0,0" style="fill: none;"/><g class="overlines-above"/><g class="xaxislayer-above"><g class="xtick"><text text-anchor="middle" x="0" y="403" transform="translate(60,0)" style="font-family: 'Open Sans', verdana, arial, sans-serif; font-size: 12px; fill: rgb(68, 68, 68); fill-opacity: 1; white-space: pre;">0</text></g><g class="xtick"><text text-anchor="middle" x="0" y="403" transform="translate(144.49,0)" style="font-family: 'Open Sans', verdana, arial, sans-serif; font-size: 12px; fill: rgb(68, 68, 68); fill-opacity: 1; white-space: pre;">5k</text></g><g class="xtick"><text text-anchor="middle" x="0" y="403" transform="translate(228.98,0)" style="font-family: 'Open Sans', verdana, arial, sans-serif; font-size: 12px; fill: rgb(68, 68, 68); fill-opacity: 1; white-space: pre;">10k</text></g><g class="xtick"><text text-anchor="middle" x="0" y="403" transform="translate(313.47,0)" style="font-family: 'Open Sans', verdana, arial, sans-serif; font-size: 12px; fill: rgb(68, 68, 68); fill-opacity: 1; white-space: pre;">15k</text></g><g class="xtick"><text text-anchor="middle" x="0" y="403" transform="translate(397.96,0)" style="font-family: 'Open Sans', verdana, arial, sans-serif; font-size: 12px; fill: rgb(68, 68, 68); fill-opacity: 1; white-space: pre;">20k</text></g><g class="xtick"><text text-anchor="middle" x="0" y="403" transform="translate(482.44,0)" style="font-family: 'Open Sans', verdana, arial, sans-serif; font-size: 12px; fill: rgb(68, 68, 68); fill-opacity: 1; white-space: pre;">25k</text></g><g class="xtick"><text text-anchor="middle" x="0" y="403" transform="translate(566.9300000000001,0)" style="font-family: 'Open Sans', verdana, arial, sans-serif; font-size: 12px; fill: rgb(68, 68, 68); fill-opacity: 1; white-space: pre;">30k</text></g></g><g class="yaxislayer-above"><g class="ytick"><text text-anchor="end" x="59" y="4.199999999999999" transform="translate(0,373.5)" style="font-family: 'Open Sans', verdana, arial, sans-serif; font-size: 12px; fill: rgb(68, 68, 68); fill-opacity: 1; white-space: pre;">0</text></g><g class="ytick"><text text-anchor="end" x="59" y="4.199999999999999" transform="translate(0,335.96)" style="font-family: 'Open Sans', verdana, arial, sans-serif; font-size: 12px; fill: rgb(68, 68, 68); fill-opacity: 1; white-space: pre;">0.1</text></g><g class="ytick"><text text-anchor="end" x="59" y="4.199999999999999" transform="translate(0,298.40999999999997)" style="font-family: 'Open Sans', verdana, arial, sans-serif; font-size: 12px; fill: rgb(68, 68, 68); fill-opacity: 1; white-space: pre;">0.2</text></g><g class="ytick"><text text-anchor="end" x="59" y="4.199999999999999" transform="translate(0,260.87)" style="font-family: 'Open Sans', verdana, arial, sans-serif; font-size: 12px; fill: rgb(68, 68, 68); fill-opacity: 1; white-space: pre;">0.3</text></g><g class="ytick"><text text-anchor="end" x="59" y="4.199999999999999" transform="translate(0,223.33)" style="font-family: 'Open Sans', verdana, arial, sans-serif; font-size: 12px; fill: rgb(68, 68, 68); fill-opacity: 1; white-space: pre;">0.4</text></g><g class="ytick"><text text-anchor="end" x="59" y="4.199999999999999" transform="translate(0,185.79000000000002)" style="font-family: 'Open Sans', verdana, arial, sans-serif; font-size: 12px; fill: rgb(68, 68, 68); fill-opacity: 1; white-space: pre;">0.5</text></g><g class="ytick"><text text-anchor="end" x="59" y="4.199999999999999" transform="translate(0,148.24)" style="font-family: 'Open Sans', verdana, arial, sans-serif; font-size: 12px; fill: rgb(68, 68, 68); fill-opacity: 1; white-space: pre;">0.6</text></g><g class="ytick"><text text-anchor="end" x="59" y="4.199999999999999" transform="translate(0,110.7)" style="font-family: 'Open Sans', verdana, arial, sans-serif; font-size: 12px; fill: rgb(68, 68, 68); fill-opacity: 1; white-space: pre;">0.7</text></g><g class="ytick"><text text-anchor="end" x="59" y="4.199999999999999" transform="translate(0,73.16)" style="font-family: 'Open Sans', verdana, arial, sans-serif; font-size: 12px; fill: rgb(68, 68, 68); fill-opacity: 1; white-space: pre;">0.8</text></g></g><g class="overaxes-above"/></g></g><g class="polarlayer"/><g class="ternarylayer"/><g class="geolayer"/><g class="pielayer"/><g class="glimages"/><defs id="topdefs-db6006"><g class="clips"/></defs><g class="layer-above"><g class="imagelayer"/><g class="shapelayer"/></g><g class="infolayer"><g class="g-gtitle"><text class="gtitle" x="350" y="30" text-anchor="middle" style="font-family: 'Open Sans', verdana, arial, sans-serif; font-size: 17px; fill: rgb(68, 68, 68); opacity: 1; font-weight: normal; white-space: pre;">train loss</text></g><g class="g-xtitle"/><g class="g-ytitle"/></g></svg>