<svg class="main-svg" xmlns="http://www.w3.org/2000/svg" xmlns:xlink="http://www.w3.org/1999/xlink" width="700" height="450" style="" viewBox="0 0 700 450"><rect x="0" y="0" width="700" height="450" style="fill: rgb(255, 255, 255); fill-opacity: 1;"/><defs id="defs-f47655"><g class="clips"><clipPath id="clipf47655xyplot" class="plotclip"><rect width="580" height="330"/></clipPath><clipPath class="axesclip" id="clipf47655x"><rect x="60" y="0" width="580" height="450"/></clipPath><clipPath class="axesclip" id="clipf47655y"><rect x="0" y="60" width="700" height="330"/></clipPath><clipPath class="axesclip" id="clipf47655xy"><rect x="60" y="60" width="580" height="330"/></clipPath></g><g class="gradients"/></defs><g class="bglayer"/><g class="layer-below"><g class="imagelayer"/><g class="shapelayer"/></g><g class="cartesianlayer"><g class="subplot xy"><g class="layer-subplot"><g class="shapelayer"/><g class="imagelayer"/></g><g class="gridlayer"><g class="x"><path class="xgrid crisp" d="M0,60v330" transform="translate(216.12,0)" style="stroke: rgb(238, 238, 238); stroke-opacity: 1; stroke-width: 1px;"/><path class="xgrid crisp" d="M0,60v330" transform="translate(372.23,0)" style="stroke: rgb(238, 238, 238); stroke-opacity: 1; stroke-width: 1px;"/><path class="xgrid crisp" d="M0,60v330" transform="translate(528.35,0)" style="stroke: rgb(238, 238, 238); stroke-opacity: 1; stroke-width: 1px;"/></g><g class="y"><path class="ygrid crisp" d="M60,0h580" transform="translate(0,308.82)" style="stroke: rgb(238, 238, 238); stroke-opacity: 1; stroke-width: 1px;"/><path class="ygrid crisp" d="M60,0h580" transform="translate(0,244.13)" style="stroke: rgb(238, 238, 238); stroke-opacity: 1; stroke-width: 1px;"/><path class="ygrid crisp" d="M60,0h580" transform="translate(0,179.45)" style="stroke: rgb(238, 238, 238); stroke-opacity: 1; stroke-width: 1px;"/><path class="ygrid crisp" d="M60,0h580" transform="translate(0,114.75999999999999)" style="stroke: rgb(238, 238, 238); stroke-opacity: 1; stroke-width: 1px;"/></g></g><g class="zerolinelayer"><path class="xzl zl crisp" d="M0,60v330" transform="translate(60,0)" style="stroke: rgb(68, 68, 68); stroke-opacity: 1; stroke-width: 1px;"/><path class="yzl zl crisp" d="M60,0h580" transform="translate(0,373.5)" style="stroke: rgb(68, 68, 68); stroke-opacity: 1; stroke-width: 1px;"/></g><path class="xlines-below"/><path class="ylines-below"/><g class="overlines-below"/><g class="xaxislayer-below"/><g class="yaxislayer-below"/><g class="overaxes-below"/><g class="plot" transform="translate(60, 60)" clip-path="url(#clipf47655xyplot)"><g class="scatterlayer mlayer"><g class="trace scatter traced9d3b0" style="stroke-miterlimit: 2; opacity: 1;"><g class="fills"/><g class="errorbars"/><g class="lines"><path class="js-line" d="M0,313.5L0.03,16.5L3.15,258.4L6.28,234.42L9.4,258.2L12.52,300.03L15.64,302.49L18.77,297.08L21.89,312.14L25.01,293.28L28.13,301.98L31.25,302.77L34.38,300.15L37.5,305.69L40.62,284L43.74,312.64L46.87,313.23L49.99,292.16L53.11,305.29L56.23,309.72L58.57,308.7L61.7,307.44L64.82,312.59L67.94,305.25L71.06,312.47L74.19,309.35L77.31,312.12L83.55,259.12L86.68,301.12L89.8,311.88L92.92,296.23L96.04,274.44L99.16,306.48L102.29,312.89L105.41,311.35L108.53,310.24L111.65,214.01L114.78,310.35L117.12,280.29L123.36,311.1L126.48,309.09L129.61,300.39L132.73,312.54L135.85,307.88L138.97,313.34L142.1,283.04L145.22,284.09L148.34,306.07L151.46,310.22L154.59,312.08L157.71,313.03L160.83,311.55L163.95,311.49L170.2,313.32L173.32,313.2L175.66,312.41L178.78,313.42L181.91,306.26L185.03,313.05L188.15,313.27L191.27,296.78L194.39,295.77L197.52,304.06L200.64,301.73L203.76,313.16L210.01,313.15L213.13,311.78L216.25,306.65L219.37,310.52L222.5,302.94L225.62,312.77L228.74,302.87L231.86,263.47L234.2,313.08L237.33,311.64L240.45,313.37L243.57,277.83L246.69,298.88L249.82,313.02L252.94,294.33L256.06,304.7L259.18,303.42L262.31,309.43L265.43,307.28L268.55,312L271.67,295.16L274.79,313L277.92,310.74L281.04,311.11L284.16,304.14L287.28,306.9L290.41,298.7L292.75,310.49L295.87,312.64L298.99,311.08L305.24,313.34L308.36,266.96L311.48,312.32L314.6,311.32L317.73,313.25L320.85,302.27L323.97,305.31L327.09,294.23L330.22,289.54L333.34,313.2L339.58,312.45L342.7,310.7L345.83,310.93L348.95,300.18L351.29,307.67L354.41,280.2L357.54,307.95L360.66,307.75L363.78,298.82L366.9,307.02L370.02,308.32L373.15,313.42L376.27,311.7L379.39,313.22L382.51,313.37L385.64,294.64L388.76,310.34L391.88,313.42L395,307.4L398.13,313.08L401.25,312.99L404.37,302.5L407.49,300.06L409.83,313.28L412.96,313.32L416.08,308.35L419.2,313.12L422.32,302.52L425.45,313.42L428.57,311.88L431.69,313.27L434.81,312.93L437.93,312.67L441.06,313.5L444.18,313.47L447.3,311.52L450.42,313.34L453.55,302.82L456.67,311.43L459.79,304.18L462.91,304.16L466.04,313.43L468.38,310.88L471.5,306.04L474.62,310.17L477.74,311.83L480.87,313.47L483.99,310.1L490.23,288.17L493.36,313.44L496.48,301.11L499.6,313.22L502.72,312.33L505.85,297.42L508.97,312.31L512.09,309.31L515.21,292.37L518.33,307.76L521.46,308.62L524.58,313.34L533.17,312.8L536.29,282.86L539.41,313.46L542.53,306.47L545.65,299.63L548.78,312.85L551.9,311.59L555.02,304.48L558.14,312.04L561.27,308.1L564.39,265.48L567.51,302.01L570.63,313.46L573.76,313.46L576.88,313.37L580,312.42" style="vector-effect: non-scaling-stroke; fill: none; stroke: rgb(31, 119, 180); stroke-opacity: 1; stroke-width: 2px; opacity: 1;"/></g><g class="points"/><g class="text"/></g></g></g><g class="overplot"/><path class="xlines-above crisp" d="M0,0" style="fill: none;"/><path class="ylines-above crisp" d="M0,0" style="fill: none;"/><g class="overlines-above"/><g class="xaxislayer-above"><g class="xtick"><text text-anchor="middle" x="0" y="403" transform="translate(60,0)" style="font-family: 'Open Sans', verdana, arial, sans-serif; font-size: 12px; fill: rgb(68, 68, 68); fill-opacity: 1; white-space: pre;">0</text></g><g class="xtick"><text text-anchor="middle" x="0" y="403" transform="translate(216.12,0)" style="font-family: 'Open Sans', verdana, arial, sans-serif; font-size: 12px; fill: rgb(68, 68, 68); fill-opacity: 1; white-space: pre;">5k</text></g><g class="xtick"><text text-anchor="middle" x="0" y="403" transform="translate(372.23,0)" style="font-family: 'Open Sans', verdana, arial, sans-serif; font-size: 12px; fill: rgb(68, 68, 68); fill-opacity: 1; white-space: pre;">10k</text></g><g class="xtick"><text text-anchor="middle" x="0" y="403" transform="translate(528.35,0)" style="font-family: 'Open Sans', verdana, arial, sans-serif; font-size: 12px; fill: rgb(68, 68, 68); fill-opacity: 1; white-space: pre;">15k</text></g></g><g class="yaxislayer-above"><g class="ytick"><text text-anchor="end" x="59" y="4.199999999999999" transform="translate(0,373.5)" style="font-family: 'Open Sans', verdana, arial, sans-serif; font-size: 12px; fill: rgb(68, 68, 68); fill-opacity: 1; white-space: pre;">0</text></g><g class="ytick"><text text-anchor="end" x="59" y="4.199999999999999" transform="translate(0,308.82)" style="font-family: 'Open Sans', verdana, arial, sans-serif; font-size: 12px; fill: rgb(68, 68, 68); fill-opacity: 1; white-space: pre;">0.5</text></g><g class="ytick"><text text-anchor="end" x="59" y="4.199999999999999" transform="translate(0,244.13)" style="font-family: 'Open Sans', verdana, arial, sans-serif; font-size: 12px; fill: rgb(68, 68, 68); fill-opacity: 1; white-space: pre;">1</text></g><g class="ytick"><text text-anchor="end" x="59" y="4.199999999999999" transform="translate(0,179.45)" style="font-family: 'Open Sans', verdana, arial, sans-serif; font-size: 12px; fill: rgb(68, 68, 68); fill-opacity: 1; white-space: pre;">1.5</text></g><g class="ytick"><text text-anchor="end" x="59" y="4.199999999999999" transform="translate(0,114.75999999999999)" style="font-family: 'Open Sans', verdana, arial, sans-serif; font-size: 12px; fill: rgb(68, 68, 68); fill-opacity: 1; white-space: pre;">2</text></g></g><g class="overaxes-above"/></g></g><g class="polarlayer"/><g class="ternarylayer"/><g class="geolayer"/><g class="pielayer"/><g class="glimages"/><defs id="topdefs-f47655"><g class="clips"/></defs><g class="layer-above"><g class="imagelayer"/><g class="shapelayer"/></g><g class="infolayer"><g class="g-gtitle"><text class="gtitle" x="350" y="30" text-anchor="middle" style="font-family: 'Open Sans', verdana, arial, sans-serif; font-size: 17px; fill: rgb(68, 68, 68); opacity: 1; font-weight: normal; white-space: pre;">train loss</text></g><g class="g-xtitle"/><g class="g-ytitle"/></g></svg>